<svg version="1.1" id="Layer_1" xmlns="http://www.w3.org/2000/svg" xmlns:xlink="http://www.w3.org/1999/xlink" x="0px" y="0px"
	 width="100%" viewBox="0 0 816 688" enable-background="new 0 0 816 688" xml:space="preserve">
<path fill="#000000" opacity="1.000000" stroke="none" 
	d="
M817.000000,509.583344 
	C808.655640,514.915222 799.466431,517.834534 790.475525,521.220764 
	C776.729675,526.397766 762.452271,529.537659 748.174561,532.864685 
	C727.275024,537.734619 706.134583,541.027283 685.010803,544.603516 
	C668.695801,547.365601 652.256470,547.969666 635.847534,549.099304 
	C615.904785,550.472351 595.907837,550.749695 575.913147,550.370178 
	C574.098450,550.335754 572.258423,550.171875 570.483826,549.807190 
	C567.391541,549.171814 565.144287,549.558350 564.988586,553.366150 
	C564.934875,554.680908 564.014709,555.485901 563.004028,556.076599 
	C555.841675,560.263184 549.504089,565.880005 541.350708,568.356873 
	C536.983398,569.683411 532.687561,571.765137 529.947388,575.292542 
	C524.031982,582.907471 515.756226,586.625366 507.446960,590.480591 
	C504.919952,591.653076 501.955200,592.478882 503.122131,596.479736 
	C503.317261,597.148682 502.492615,598.371155 501.821442,598.997192 
	C494.624359,605.710022 487.396271,612.444885 477.867035,615.769226 
	C476.109711,616.382324 473.617371,618.495056 472.147125,615.684814 
	C470.645020,612.813721 473.020142,611.189880 475.127228,609.679565 
	C478.185944,607.487122 481.659210,605.775818 484.196106,602.261169 
	C481.867096,600.999451 479.337372,603.299316 477.308929,601.262695 
	C477.293518,597.226013 480.434967,595.425354 483.338837,593.612610 
	C493.053467,587.548157 504.189453,584.891785 514.694031,580.717896 
	C516.647766,579.941589 518.958435,579.689697 520.079712,576.997864 
	C516.807617,575.339417 513.828552,576.581360 511.049286,577.681946 
	C498.347900,582.711426 485.633026,581.055542 472.894684,578.024536 
	C471.155426,577.610718 469.771667,576.610046 470.063477,574.529053 
	C470.401947,572.115112 472.289612,572.512390 473.940979,572.598328 
	C475.105133,572.658936 476.389862,572.468079 477.411102,572.893188 
	C488.667664,577.578796 499.629395,574.577148 510.638153,571.834595 
	C516.930481,570.267090 523.283569,568.944153 529.585388,567.413208 
	C531.186401,567.024292 532.777100,566.413330 534.232666,565.640808 
	C537.899170,563.694824 541.747864,561.706482 537.517883,555.816223 
	C546.631470,559.763550 553.632751,555.497253 560.685913,550.932068 
	C548.150208,550.075684 535.549561,549.206116 522.947510,548.357056 
	C514.491882,547.787292 505.976715,547.789429 497.695374,545.607361 
	C493.646881,544.540588 490.133545,547.517151 485.935150,546.885376 
	C477.112854,545.557678 468.887817,542.469971 460.561615,539.575989 
	C457.263123,538.429565 453.904663,537.429443 450.524933,536.549316 
	C445.510773,535.243530 443.625122,530.929382 447.229675,527.180786 
	C451.551849,522.685913 456.302032,518.319336 463.425323,518.640381 
	C467.915466,518.842712 472.424591,518.581055 476.921997,518.676880 
	C481.323029,518.770569 484.411987,516.267334 487.475677,513.660034 
	C488.412781,512.862488 488.988983,511.819733 488.457428,510.559113 
	C488.003387,509.482300 486.955597,509.321838 485.939453,509.284576 
	C480.195221,509.073914 475.414795,506.975067 470.308167,504.042480 
	C463.669769,500.230164 455.515228,500.009338 447.982178,502.513763 
	C437.728302,505.922760 427.575775,509.628845 417.320984,513.059021 
	C398.387543,519.392212 384.986603,533.059082 373.383423,548.662476 
	C372.361450,550.036804 372.030121,552.045044 371.736511,553.818237 
	C370.807159,559.431030 368.920074,564.743958 367.186646,570.132446 
	C365.062439,576.735840 361.716125,581.449768 354.023071,581.403870 
	C352.056458,581.392151 350.722076,582.866577 349.300049,584.006165 
	C342.340881,589.582764 337.254425,596.877686 331.438507,603.503479 
	C329.583008,605.617371 331.092743,609.313293 327.861786,610.959167 
	C323.054016,609.257690 324.461700,603.877869 322.111420,600.507141 
	C314.349335,602.787537 311.676331,612.934998 302.075409,612.126892 
	C303.012939,615.897827 300.697693,617.436768 298.500488,619.317688 
	C284.022736,631.711731 267.262878,640.744934 251.571533,651.345581 
	C247.691940,653.966614 243.219482,655.455627 238.710022,656.732056 
	C236.985443,657.220215 235.367355,657.415894 234.344193,655.570190 
	C233.229675,653.559814 234.620270,652.375000 236.052277,651.500916 
	C239.652802,649.303101 239.394104,646.422974 236.757233,644.141174 
	C230.961884,639.126404 229.717514,632.886108 230.655167,625.767822 
	C231.019958,622.998474 229.924850,620.573242 228.807266,618.119141 
	C227.080109,614.326355 228.500198,611.224487 231.537277,608.893677 
	C233.911484,607.071655 236.439835,606.725159 238.371674,609.752686 
	C238.640579,610.174133 238.867752,610.905151 239.202072,610.960205 
	C246.407913,612.148621 252.772675,616.982910 260.224182,616.449097 
	C263.502258,616.214355 265.822479,616.215759 268.233215,618.679321 
	C273.241089,623.796814 275.358002,623.759155 280.983246,619.164429 
	C284.553894,616.247864 287.573425,612.432922 292.821106,612.364441 
	C293.484009,612.355774 294.622833,611.605225 294.717987,611.055847 
	C295.670166,605.558044 300.545105,604.044250 304.377869,601.738831 
	C310.965698,597.776306 317.744049,594.220642 323.324554,588.729370 
	C326.328613,585.773315 330.427734,584.266541 334.544525,583.555603 
	C339.063660,582.775024 342.029907,580.046448 345.481995,577.342468 
	C352.857758,571.565186 357.088470,564.484192 359.976776,555.575623 
	C363.326508,545.243896 369.314270,536.074036 378.673920,529.661438 
	C380.669159,528.294373 382.797333,526.762085 383.165863,523.875977 
	C381.396912,521.638123 378.681885,521.121277 376.270966,520.159424 
	C368.511322,517.063721 360.983276,513.554260 354.122406,508.721100 
	C349.835236,505.700989 346.070068,502.184875 343.912720,497.331238 
	C343.088715,495.477386 341.819183,493.385406 343.547150,491.268188 
	C345.905792,490.469269 346.941193,492.249969 348.037231,493.623413 
	C358.518616,506.758057 373.464905,512.611389 388.464935,518.272522 
	C392.417572,519.764343 398.421906,516.339539 401.490540,511.437347 
	C399.931458,511.136566 399.634735,512.560730 398.816833,513.003357 
	C396.344879,514.341003 393.662109,514.410950 392.813873,511.371613 
	C391.782257,507.675110 389.172424,506.490479 386.087189,505.494934 
	C377.851440,502.837494 369.657043,500.043793 361.371460,497.552765 
	C357.988495,496.535736 357.470886,494.701385 358.120514,491.554779 
	C358.920074,487.681824 360.294006,482.579376 356.081665,480.707581 
	C352.361938,479.054626 349.588196,483.466248 346.953522,486.094574 
	C346.174347,486.871857 345.843231,488.257202 344.310059,487.945343 
	C342.889893,482.831177 345.022980,477.558319 350.072937,475.467010 
	C353.846497,473.904327 355.724518,471.389343 357.122803,467.724457 
	C359.654022,461.090118 363.495667,455.107819 365.381256,448.017426 
	C366.396606,444.199371 369.951355,440.084229 374.213318,437.673126 
	C376.855927,436.178131 378.428436,434.323425 376.507874,430.773010 
	C372.261292,422.922546 374.551025,419.336426 384.055878,418.144836 
	C385.705902,418.876678 384.737396,421.045807 386.504242,422.111298 
	C393.810730,419.066193 392.311249,410.058167 397.917053,405.149078 
	C397.858490,412.908508 405.012604,418.174805 403.294373,426.475006 
	C407.959351,426.116852 410.058594,423.595551 411.850220,420.782562 
	C418.713104,410.007050 427.018829,401.092590 438.740723,395.070007 
	C457.184784,385.593628 473.424103,373.107849 488.434662,358.524597 
	C504.170593,343.236603 521.654907,329.718567 542.545166,321.574249 
	C554.839478,316.781097 567.670227,313.302734 580.537781,316.650604 
	C586.439697,318.186157 591.651428,318.181610 597.356201,317.795135 
	C606.631714,317.166748 615.958374,318.856689 624.207886,322.377014 
	C628.949280,324.400330 633.791565,324.716919 638.425720,326.406281 
	C647.727539,329.797241 655.334229,335.498535 662.616638,341.941864 
	C670.439209,348.863129 679.372009,353.800079 689.454163,356.888245 
	C699.492981,359.963196 708.873535,364.772644 718.488098,368.972931 
	C731.012695,374.444519 739.186829,384.743103 746.937256,394.947296 
	C753.655457,403.792542 760.903992,404.379272 769.995850,401.122284 
	C776.707153,398.718079 783.438293,396.361725 790.088135,393.796356 
	C794.371521,392.143921 796.625793,388.276337 799.108459,384.725342 
	C803.312256,378.712555 808.664734,375.544312 816.607300,377.924377 
	C817.000000,388.020905 817.000000,398.041779 816.702087,408.725952 
	C814.486816,411.475830 811.816711,412.220520 809.273010,412.722992 
	C795.401184,415.463135 782.572693,421.873016 768.584229,424.171265 
	C766.952271,424.439392 765.347961,424.957825 763.779480,425.500702 
	C762.743286,425.859344 761.428589,426.210815 762.148560,428.140686 
	C762.685181,428.169769 763.362488,428.386719 763.913635,428.209930 
	C776.505066,424.172455 789.458008,422.332581 802.607849,421.340973 
	C807.491516,420.972687 812.694885,421.196075 817.000000,418.000000 
	C817.000000,420.700012 817.000000,423.400024 816.565063,426.594727 
	C807.438232,428.004059 798.850403,429.404816 790.091858,432.086060 
	C790.912476,434.011780 791.471558,435.370209 792.067505,436.712311 
	C793.269592,439.419220 795.370483,441.748901 795.350586,444.966705 
	C795.337463,447.089600 795.052612,449.121643 792.794556,449.886169 
	C790.550903,450.645782 789.376831,448.838531 788.540161,447.268341 
	C787.215759,444.783020 786.216858,442.124207 785.081848,439.538116 
	C783.420776,435.753632 780.648071,433.589111 776.423828,434.433960 
	C771.864990,435.345703 767.360474,436.565887 762.882568,437.829956 
	C760.616028,438.469788 757.978027,439.547577 757.840332,442.111053 
	C757.626038,446.100861 755.221924,447.803070 752.277100,449.604126 
	C749.862610,451.080872 749.028870,453.197418 752.359741,454.738281 
	C759.247559,457.924591 767.251465,455.839417 774.162354,459.191620 
	C774.645752,459.426086 775.865662,458.400909 776.611023,457.798126 
	C790.114258,446.878632 809.020386,450.707825 817.000000,466.000000 
	C817.000000,471.688049 817.000000,477.376068 816.704407,483.697876 
	C813.360657,486.898499 812.354126,490.490509 812.379578,494.140839 
	C812.440552,502.913574 807.078613,507.126068 799.861145,509.948120 
	C797.548340,510.852417 795.178162,511.676270 792.765564,512.246277 
	C786.480347,513.731323 780.148193,515.016785 773.852234,516.458252 
	C770.235168,517.286377 766.620605,518.218018 764.870361,522.384583 
	C767.775574,523.245728 770.203674,522.774109 772.596130,522.110352 
	C787.952148,517.849792 802.039917,510.292450 817.000000,505.000000 
	C817.000000,506.388885 817.000000,507.777802 817.000000,509.583344 
M468.996094,457.998901 
	C468.996094,457.998901 469.026733,458.026733 468.523468,457.516388 
	C467.941132,457.196320 467.388611,456.795135 466.771973,456.568512 
	C459.127930,453.759460 457.202026,454.995941 457.264160,462.706970 
	C454.752289,464.233246 452.929504,461.951996 450.779785,461.498627 
	C448.045990,460.922150 446.336090,461.885437 445.727753,465.167786 
	C451.926208,467.017578 458.340332,467.330383 464.055023,470.168884 
	C471.149994,473.693024 474.424164,479.513702 471.685242,487.030396 
	C466.055176,478.525604 460.377655,471.125061 449.200256,472.893280 
	C439.885803,474.366791 430.068970,474.237396 426.421570,485.603271 
	C428.196136,486.788513 429.812744,487.472961 430.840790,488.665009 
	C431.889038,489.880554 432.684631,491.697815 431.659851,493.288330 
	C430.629913,494.886841 429.058167,494.251556 427.651001,493.555145 
	C426.769531,493.118866 425.821930,492.449432 424.888245,493.297546 
	C422.049591,495.875916 420.966217,499.659576 421.753662,502.835327 
	C422.642548,506.420044 425.981934,503.650970 428.141479,503.359924 
	C430.061646,503.101135 431.997742,502.206116 433.699493,501.205383 
	C443.713745,495.316437 454.487518,495.089539 465.635651,496.264099 
	C474.755890,497.225037 484.122009,499.795959 492.785187,494.106720 
	C493.793182,493.444794 495.069977,493.566833 496.121704,494.234802 
	C497.358887,495.020569 497.132812,496.055542 496.647125,497.278687 
	C495.087616,501.206207 497.880554,504.264435 500.288116,505.629181 
	C503.114655,507.231445 505.509308,503.995209 506.553467,501.421936 
	C509.245941,494.786804 514.553284,491.904694 521.021667,490.576965 
	C524.379700,489.887634 526.034363,488.147400 525.672546,484.725861 
	C525.387146,482.026611 527.240173,478.196960 524.426208,476.893005 
	C521.257263,475.424500 520.574341,479.620361 518.962646,481.491577 
	C517.743347,482.907104 516.346069,483.605469 514.572327,482.982483 
	C512.833496,482.371796 513.287170,480.904236 513.549072,479.599030 
	C514.077454,476.965881 513.205017,475.286987 510.354065,475.214172 
	C503.632111,475.042542 496.812897,475.915161 490.762848,471.514587 
	C489.458832,470.566101 486.386475,471.017578 485.910492,473.545807 
	C485.488251,475.788635 487.703278,476.428009 489.478088,476.964294 
	C492.643463,477.920776 495.598785,479.278168 499.109680,481.602570 
	C495.058472,483.848633 490.380463,485.269592 492.354736,490.865845 
	C490.374023,490.784027 490.009064,489.725677 489.485138,488.945984 
	C485.646759,483.233612 485.664673,483.229370 481.481781,488.438263 
	C481.329529,488.627838 480.865753,488.567200 480.545837,488.615723 
	C474.773407,481.111481 474.721375,478.813049 480.330261,476.693817 
	C481.009186,474.894348 480.083191,472.632111 481.761261,471.068878 
	C484.271423,468.730530 483.952881,466.442932 481.645142,464.203339 
	C479.849945,462.461121 479.439972,460.632568 480.914246,458.422150 
	C482.144470,456.577698 481.458588,454.969391 479.949158,453.554321 
	C478.271454,451.981476 476.608551,452.387817 474.981079,453.539154 
	C472.947510,454.977783 470.967102,456.491577 468.996094,457.998901 
M533.005066,372.038971 
	C533.005066,372.038971 533.266479,372.321930 533.255676,373.014282 
	C532.979797,374.706757 532.703918,376.399261 532.343506,378.610565 
	C534.435364,377.706299 535.948914,377.055237 537.459900,376.398224 
	C542.930603,374.019562 545.325195,375.392853 545.763428,381.162750 
	C546.092041,385.488495 549.763489,387.572510 553.597656,385.721375 
	C555.429993,384.836731 557.167725,383.032928 559.880737,384.705536 
	C559.610535,389.087402 556.252808,391.477356 553.457764,394.139099 
	C551.048645,396.433319 549.377808,394.214386 547.424866,393.005798 
	C546.060913,392.161774 544.459106,393.140991 543.189331,393.813263 
	C539.809692,395.602692 536.533081,397.587646 533.226929,399.514557 
	C531.512268,400.513855 529.604797,400.718353 527.956482,399.839783 
	C525.825378,398.703796 527.372131,396.968445 527.709106,395.450867 
	C527.961243,394.315430 528.149841,393.136719 527.108826,392.034729 
	C524.626160,391.606873 522.670959,392.231659 521.783813,394.975586 
	C520.555908,398.773743 518.077576,399.286255 514.343750,398.565125 
	C511.770447,398.068054 508.674164,396.015900 506.818787,397.964661 
	C509.001831,408.918518 507.299255,416.678101 495.822968,419.785065 
	C498.617523,422.186218 501.332733,423.523865 504.152405,422.638031 
	C510.706421,420.578979 514.830017,424.572327 518.281921,428.607513 
	C521.303955,432.140198 526.580017,432.142059 528.841614,436.422913 
	C529.012390,436.746185 530.749573,436.782471 531.131714,436.370544 
	C535.278503,431.900848 540.842957,435.220825 545.493530,433.639679 
	C548.331665,432.674744 550.624390,433.283905 551.364258,436.702362 
	C561.010620,434.136169 569.174622,429.648285 577.206848,424.381134 
	C585.200317,419.139435 592.767456,412.453156 603.171814,411.998138 
	C605.488953,411.896790 607.791260,411.451843 610.099854,411.160950 
	C620.669250,409.829102 631.251404,408.270447 641.920837,408.823792 
	C646.137573,409.042419 649.864685,411.713074 654.628479,410.799377 
	C662.365662,409.315430 670.182617,411.527924 677.987244,411.699982 
	C679.957520,411.743439 682.221924,412.176056 683.337891,409.972717 
	C684.859924,406.967773 687.362671,407.360504 689.797668,407.951874 
	C693.999451,408.972260 698.106934,410.389160 702.318909,411.357178 
	C705.546997,412.099060 708.778198,414.485199 711.943909,413.466217 
	C717.041199,411.825500 721.804810,412.945801 726.682922,413.720581 
	C733.412537,414.789520 740.196777,415.696655 746.474976,418.601196 
	C748.035217,419.323059 749.419800,420.223663 749.184509,422.314301 
	C748.961670,424.294800 747.294678,424.457672 745.923218,424.884216 
	C742.317383,426.005615 738.718994,425.720184 735.106384,424.747711 
	C731.403931,423.751068 727.682739,423.087128 723.769775,423.494995 
	C717.321289,424.167084 710.828796,424.419373 704.381775,425.102356 
	C688.659851,426.767822 673.697144,421.847565 658.461853,419.652161 
	C640.900330,417.121582 624.138062,421.916016 607.014282,423.303986 
	C605.437744,423.431793 603.569397,424.371765 603.843689,425.917328 
	C605.042236,432.671448 599.303406,433.527679 595.570801,435.931580 
	C592.791687,437.721405 589.745850,438.404083 587.672180,432.693970 
	C583.383484,441.292053 577.797058,447.208984 572.191345,453.918518 
	C575.005249,453.846741 576.043518,451.608521 577.251160,451.769409 
	C580.290405,453.049225 576.920593,457.208160 581.171387,457.273438 
	C583.395691,454.591644 583.946228,451.580872 582.479736,448.431946 
	C585.176941,446.172363 587.864990,447.488892 590.431824,447.668640 
	C593.574463,447.888702 595.856750,446.496246 597.847107,444.206024 
	C597.607910,442.428619 595.064026,440.696228 597.355347,438.899353 
	C598.791626,437.772980 600.486816,437.953552 601.873718,439.601013 
	C602.010315,441.289124 599.671753,443.030518 602.015808,444.923798 
	C603.323730,445.980286 602.436646,447.658997 601.211609,448.259033 
	C594.076538,451.754028 590.454895,460.430298 580.827576,461.368164 
	C586.196594,462.786469 582.996887,466.139221 583.260437,469.354797 
	C589.108032,468.011932 594.769043,467.368896 599.899475,465.366516 
	C606.243469,462.890503 606.725220,462.706940 607.936829,469.129150 
	C611.682129,469.451447 611.682129,469.451447 613.439636,471.272980 
	C616.837952,474.795135 621.312805,474.699036 624.620667,471.039001 
	C626.416077,469.052460 627.730042,466.738495 629.224609,464.540192 
	C631.439026,461.283081 634.699158,461.373535 638.140625,462.665619 
	C641.687805,463.997406 641.406738,466.860565 641.225830,469.722412 
	C641.158752,470.782898 640.694641,471.673187 639.518127,471.869171 
	C638.366028,472.061035 637.597473,471.394989 637.110779,470.471375 
	C636.385864,469.096008 636.525085,467.063110 634.031128,466.859497 
	C629.642639,474.622192 624.342041,480.900116 613.902893,477.211517 
	C610.355408,475.958038 607.176270,478.411224 603.735229,478.753906 
	C601.086426,479.017731 602.613342,482.625916 601.091492,484.178436 
	C600.878235,484.395966 600.549011,484.499695 600.268127,484.644318 
	C598.063110,484.507355 599.096008,481.558289 596.696655,481.018097 
	C593.408875,483.002930 589.316589,483.473877 585.149719,483.554352 
	C579.232666,483.668671 579.973267,477.717957 577.528931,474.702789 
	C573.104004,476.579376 576.508911,483.301453 571.912659,483.894531 
	C568.116943,484.384338 563.971558,483.338379 560.168884,482.291046 
	C555.822266,481.093872 557.387573,476.980530 557.112488,473.981567 
	C554.708069,472.804321 553.143799,474.246002 551.515930,475.354309 
	C550.135254,476.294373 548.096497,478.012787 547.101807,476.930817 
	C541.845459,471.213440 538.269958,474.282837 533.461365,477.933563 
	C531.068787,479.750000 529.509460,480.672455 530.624207,483.354736 
	C531.825134,486.244263 533.937561,485.799988 536.363281,484.395203 
	C541.256042,481.561798 546.173279,482.335693 551.046143,484.871765 
	C548.070923,486.203979 544.993347,486.602722 542.007629,487.362030 
	C536.562683,488.746704 530.244507,488.309509 527.082397,494.617889 
	C525.805481,497.165497 521.796875,499.136688 523.467041,502.160431 
	C525.343628,505.557953 528.484497,502.014130 531.094482,501.891083 
	C532.722595,501.814270 534.614624,501.190308 535.294067,503.396210 
	C535.931152,505.464569 534.494446,506.498322 532.838745,507.104736 
	C529.874451,508.190491 526.836487,509.076782 523.881165,510.184753 
	C522.514893,510.696991 520.814087,511.285156 520.906311,513.116089 
	C520.994629,514.871521 522.398438,515.581238 524.050415,515.702698 
	C526.786133,515.903870 527.437866,517.819336 526.978516,519.936218 
	C526.309326,523.019958 527.927673,524.195251 530.366089,525.020752 
	C540.596008,528.483887 550.157715,527.798035 559.332458,521.446899 
	C567.581543,515.736511 568.420288,514.164307 567.040100,504.401062 
	C566.253357,498.835724 564.096680,494.047333 560.578552,489.975616 
	C561.693359,488.466888 562.994141,488.222260 564.000916,488.724701 
	C571.023132,492.229431 570.957275,500.155029 574.653931,506.197754 
	C575.500305,500.905945 577.445129,496.485657 581.255920,493.008026 
	C581.650024,492.648346 581.655396,491.752472 581.666931,491.102325 
	C581.720459,488.085236 583.401550,487.274384 585.967529,488.104156 
	C588.343262,488.872406 590.522644,488.393646 592.816223,487.816254 
	C594.897461,487.292358 597.060059,487.004456 599.203979,486.846497 
	C600.676880,486.738037 602.418640,486.787354 603.060669,488.483673 
	C603.783752,490.394165 602.090454,491.110046 600.850769,491.864807 
	C597.222717,494.073761 594.409485,497.124573 591.885559,500.458191 
	C586.952515,506.973785 590.369629,515.814819 598.309875,517.257629 
	C598.900024,517.364868 599.422791,517.842468 600.144592,518.240417 
	C599.102966,521.199707 599.289185,523.827881 601.106812,526.370972 
	C602.262085,527.987427 601.878296,529.877930 600.826538,531.558594 
	C597.247314,537.277954 588.139648,538.134583 583.416321,533.196838 
	C579.593140,529.200073 570.349670,528.330872 564.273987,532.164429 
	C571.851135,532.738586 578.472839,533.779968 582.599365,540.048889 
	C580.638977,542.351013 578.120422,542.452393 575.967773,542.074158 
	C561.232300,539.485107 546.401672,537.992859 531.452209,537.589722 
	C525.913147,537.440369 521.570007,532.793152 516.554199,532.525208 
	C507.859711,532.060669 498.929535,530.703308 490.294250,533.639221 
	C488.242249,534.336853 485.521637,535.298340 484.147125,533.503662 
	C478.995514,526.777161 471.516479,527.945190 464.617279,527.221680 
	C462.099915,526.957581 459.206635,527.465698 458.633667,530.515198 
	C457.995789,533.910034 461.363617,533.739624 463.297729,534.536743 
	C475.291718,539.479736 488.145844,538.491821 500.666351,539.597412 
	C514.252991,540.797119 527.908569,541.192871 541.520996,542.128967 
	C558.498230,543.296448 575.439514,545.104309 592.494568,544.695068 
	C593.325745,544.675110 594.162598,544.631470 594.984131,544.511963 
	C605.196350,543.026917 615.470032,542.282654 625.757202,541.510925 
	C631.444397,541.084229 637.057678,542.102234 642.667786,541.510864 
	C657.221802,539.976868 671.770020,538.372925 686.297974,536.610779 
	C701.810669,534.729309 717.296204,532.624023 732.797668,530.648682 
	C734.398438,530.444702 735.770020,529.954651 736.354126,528.361511 
	C737.003174,526.591492 735.861572,525.534729 734.550415,524.676819 
	C731.080139,522.406311 728.966431,519.030701 726.960266,515.544861 
	C726.252197,514.314575 725.950806,512.610840 723.917053,512.566772 
	C721.054016,514.455933 723.082642,516.085815 724.149475,517.884888 
	C726.060242,521.107239 724.725891,524.214844 721.054138,524.192749 
	C716.402527,524.164856 712.196350,525.102844 708.151489,527.300110 
	C706.900513,527.979614 705.239258,528.847900 704.188232,527.035889 
	C703.197754,525.328064 704.584778,524.278137 705.739258,523.302979 
	C710.468323,519.308594 714.723877,515.002747 717.800293,509.465546 
	C722.729431,500.593719 720.810242,494.516968 712.804016,488.616943 
	C708.165100,485.198395 703.925293,486.137451 699.294495,486.315735 
	C687.638550,486.764496 677.394470,491.614899 667.334412,496.859589 
	C664.824463,498.168152 661.810852,500.928101 663.169495,503.523682 
	C665.873657,508.689575 668.525513,514.449829 674.816284,516.563904 
	C680.333923,518.418213 685.768372,520.548157 691.513855,521.685730 
	C694.448914,522.266846 697.383667,522.938782 700.027344,524.437195 
	C701.050964,525.017334 702.047180,525.723816 702.024780,527.079407 
	C701.998718,528.659729 700.908630,529.672607 699.576233,529.851807 
	C687.811096,531.433472 676.253296,536.635986 664.108887,532.000244 
	C662.803955,531.502136 661.400269,531.555115 660.214050,532.213074 
	C653.913696,535.707642 647.224426,534.458191 640.663635,533.690063 
	C636.552368,533.208679 632.644470,533.321045 628.989197,535.213318 
	C621.408447,539.137878 613.434143,539.549500 605.190002,538.388794 
	C603.235596,538.113586 601.525146,537.846924 601.242371,535.468262 
	C600.974792,533.217407 602.323120,532.135132 604.169678,531.398193 
	C609.378967,529.319275 614.857483,528.623230 620.344910,529.189087 
	C625.502319,529.720947 628.992920,527.519958 631.895874,523.741638 
	C638.098511,515.668640 637.835327,506.781555 633.607849,498.339172 
	C631.207031,493.544708 628.420776,488.307404 620.636047,488.914337 
	C616.020813,489.274139 610.623901,487.974152 606.054688,485.443207 
	C606.942627,483.190979 608.516235,482.974670 609.931885,482.832428 
	C616.016174,482.220886 621.877991,482.802032 627.275330,486.096619 
	C633.816040,490.089172 637.375000,488.695312 639.784180,481.345032 
	C640.250366,479.922882 640.513916,478.426483 641.065308,477.041748 
	C642.037170,474.601135 643.811401,472.898315 646.322693,472.043396 
	C647.592651,471.611023 648.620667,472.121887 649.411987,473.095306 
	C650.294434,474.180725 650.231567,475.829620 649.183594,476.167206 
	C642.888123,478.195068 645.943787,484.411926 642.757141,488.355347 
	C649.961792,486.506073 650.989990,485.520996 651.799316,479.631195 
	C652.213013,476.620270 653.357422,474.656586 656.750671,474.550934 
	C660.775330,474.425629 663.752930,472.825653 664.630249,468.461517 
	C664.823792,467.498932 665.582642,466.695038 666.800171,466.778534 
	C668.997314,467.052673 668.670959,469.852478 670.545410,470.526093 
	C673.416687,470.494843 676.102295,466.632904 678.293823,468.221588 
	C682.522766,471.287140 684.325195,468.880157 688.107239,467.197601 
	C694.863892,464.191711 700.843201,460.486633 706.609741,456.083496 
	C707.962952,455.050232 709.995667,453.478943 711.518433,455.231354 
	C713.245178,457.218506 711.399414,459.238708 710.384155,461.097931 
	C709.333618,463.021729 706.340515,463.212616 705.730896,465.879333 
	C711.688538,465.869232 713.756287,464.146606 715.673950,457.359894 
	C716.684509,453.783325 718.112854,450.890411 722.105103,450.405060 
	C723.922852,451.726227 720.646912,453.295349 722.861877,454.514648 
	C725.029358,454.840149 726.231567,452.978638 727.628052,451.688568 
	C731.914307,447.728882 736.548218,444.696899 741.974915,442.141998 
	C747.077637,439.739655 753.111267,436.139832 753.530457,428.927643 
	C753.847534,423.471283 754.860291,418.425171 759.513672,414.362732 
	C751.473755,407.593292 744.318359,400.382141 737.983032,392.505920 
	C727.817505,379.867767 714.147827,373.046204 699.352722,367.918274 
	C696.211975,366.829651 692.888306,365.465546 689.419678,366.571411 
	C689.100647,370.457886 693.819946,368.680664 694.384949,371.702576 
	C690.968262,373.181091 688.282593,371.181702 686.394836,369.262421 
	C682.377380,365.178131 677.535156,363.844482 672.173340,363.013275 
	C669.306396,362.568848 665.210754,362.250916 664.360291,359.346710 
	C662.500610,352.995453 657.386047,350.771729 652.480225,348.100525 
	C647.866577,345.588409 642.513489,344.255219 639.872986,338.902527 
	C639.311707,337.764679 637.553772,336.820282 636.192444,336.541046 
	C629.445129,335.156738 623.686890,331.261169 616.549133,330.344177 
	C602.213135,328.502502 588.063904,325.147430 573.464844,326.300385 
	C565.685059,326.914825 558.134399,328.539490 550.818298,331.841187 
	C551.382629,333.205536 551.953491,334.073212 552.089050,335.004242 
	C552.608459,338.571045 551.220459,342.849823 556.012146,344.745148 
	C556.309692,344.862854 556.542908,346.153259 556.279480,346.522491 
	C553.669617,350.181427 549.690247,349.511505 545.928528,349.813110 
	C543.065674,350.042633 543.093567,348.176880 542.790222,346.389404 
	C542.595886,345.244354 542.653259,343.929230 541.233154,343.552307 
	C539.714233,343.149170 538.432739,343.954437 537.936279,345.215057 
	C536.286560,349.403931 533.180176,349.829865 528.942749,348.300690 
	C530.033569,349.690796 529.777527,352.198212 528.703552,355.111755 
	C532.673035,355.295593 536.024841,351.407867 540.121704,353.272614 
	C540.778687,356.517609 538.812500,358.394958 536.689514,359.501099 
	C532.392517,361.739899 529.475403,365.181091 526.615356,368.899963 
	C525.124939,370.837952 523.030823,372.370331 521.033447,373.848175 
	C516.159180,377.454681 516.589661,381.061676 522.445374,383.792267 
	C525.401489,379.402313 525.206665,372.222504 533.005066,372.038971 
M378.257202,481.912689 
	C378.723816,485.597290 377.379791,486.308899 374.452026,484.162415 
	C372.203217,482.513733 370.785706,480.211548 370.020966,476.444672 
	C368.384125,483.198517 370.247955,486.363251 376.121857,487.363495 
	C378.653412,487.794617 381.343109,489.008179 383.319183,490.642303 
	C387.738647,494.297089 392.555115,494.501953 397.843628,493.768280 
	C404.811554,492.801636 409.220032,488.243256 409.654053,481.185364 
	C410.021332,475.213104 408.701019,469.631866 406.069733,464.295288 
	C401.062103,454.138977 396.950409,451.929199 385.781311,453.535919 
	C384.794952,453.677795 383.830322,453.966858 382.852509,454.172821 
	C374.951111,455.837097 368.864807,464.114227 369.702606,472.378967 
	C372.615448,470.048798 374.411530,471.576599 375.582977,474.195068 
	C376.594971,476.457123 377.278931,478.865997 378.257202,481.912689 
M371.647186,449.121063 
	C379.278107,449.181488 386.759369,447.101593 394.439087,447.643463 
	C400.769836,448.090149 406.297180,450.108246 409.608459,455.756561 
	C412.517242,460.718292 416.194000,465.403503 416.485474,471.593445 
	C416.620087,474.451843 418.518646,475.285522 421.065125,474.204193 
	C423.819611,473.034515 426.480438,471.646301 429.207947,470.410461 
	C431.913422,469.184631 434.073517,467.617859 433.240692,463.966553 
	C436.781769,463.901489 440.007538,464.013885 440.160034,459.352783 
	C440.219025,457.550049 442.459625,457.202057 444.019562,456.650269 
	C447.119354,455.553802 449.606659,453.605499 451.244598,450.799377 
	C453.112335,447.599487 452.839905,444.664642 448.898438,441.723297 
	C448.816589,446.896088 448.008667,451.027710 442.212097,451.107086 
	C441.607697,451.115356 440.952515,452.129059 440.431763,452.766815 
	C437.090149,456.859406 432.496307,457.964417 427.542358,458.269135 
	C425.394745,458.401215 423.641418,457.979828 422.624664,455.765289 
	C421.629333,453.597473 421.490753,451.495483 423.062378,449.682739 
	C424.356323,448.190247 425.992401,446.992950 427.486664,445.675995 
	C428.476410,444.803680 430.206146,443.649323 429.313934,442.523163 
	C425.974518,438.308258 426.269592,431.157562 418.918549,429.819946 
	C418.624298,433.336975 416.630829,435.280579 413.455292,433.069153 
	C410.710968,431.158081 408.752319,431.726746 406.179108,432.997986 
	C401.881897,435.120911 398.703857,433.753754 396.417633,429.387451 
	C395.596649,427.819519 395.560852,425.768707 393.479004,424.584229 
	C390.377594,426.404999 387.171478,428.287262 383.812653,430.259155 
	C384.343567,430.843079 384.594299,431.372528 384.981079,431.505157 
	C389.150238,432.934814 388.723206,436.328613 387.976593,439.381592 
	C387.010010,443.333923 383.826263,441.564423 381.353363,441.309845 
	C380.536560,441.225739 379.747742,440.893311 378.938293,440.708923 
	C376.908020,440.246490 375.221954,440.955933 375.808899,443.121674 
	C376.853394,446.975800 374.241180,447.653961 371.647186,449.121063 
M753.358887,481.158234 
	C752.052185,481.398407 750.713867,481.529114 749.443970,481.896576 
	C741.064087,484.321411 736.528992,492.024536 729.634583,496.542023 
	C727.844849,497.714752 727.148743,500.906647 729.947144,502.481171 
	C732.751404,504.058868 733.792908,506.477295 734.440186,509.288269 
	C735.113037,512.210205 736.746033,513.369446 739.858093,514.016907 
	C744.486145,514.979919 749.858032,514.274780 753.576477,517.534180 
	C756.028320,519.683350 757.427490,519.052795 759.585510,517.813049 
	C767.219604,513.427490 769.109985,505.805237 770.803162,498.100983 
	C773.527283,485.705536 766.986023,479.031952 753.358887,481.158234 
M810.131226,466.157501 
	C808.664795,464.088593 806.406433,464.185486 804.267029,464.089935 
	C797.338623,463.780334 791.215759,466.106049 785.579285,469.947906 
	C776.180603,476.354187 775.622620,477.982422 779.196045,488.515228 
	C779.409424,489.144135 779.630371,489.771820 779.808716,490.410980 
	C780.823303,494.047485 783.422607,496.199432 786.950684,496.456024 
	C790.766541,496.733582 793.359253,498.527344 794.786865,501.675812 
	C796.065369,504.495392 797.757263,504.574554 799.885437,503.318726 
	C805.327820,500.107300 809.923462,496.226990 809.680969,489.069489 
	C809.612366,487.044983 809.602722,484.906311 811.017212,483.370056 
	C816.293213,477.639984 814.577393,472.192505 810.131226,466.157501 
M773.879333,409.686676 
	C774.016785,411.703613 774.028259,411.842194 776.194885,411.662750 
	C786.260498,410.828949 795.627747,407.800201 804.611328,403.144958 
	C812.500916,399.056671 812.706848,391.510132 814.709778,384.680450 
	C812.311890,383.265747 811.040100,384.315002 809.627686,385.268524 
	C805.331787,388.168701 802.602356,392.208344 800.624817,396.905853 
	C799.464966,399.661011 798.222595,402.489532 795.090027,403.629150 
	C788.379822,406.070404 781.673767,408.542511 773.879333,409.686676 
M666.101379,480.031250 
	C663.549927,478.579529 660.770020,477.729767 657.968750,478.724274 
	C655.096252,479.744049 656.936035,482.529999 656.355530,484.443573 
	C656.168640,485.059448 655.884644,485.809326 655.400391,486.146271 
	C650.447571,489.592224 647.760254,498.410461 637.966248,491.536957 
	C641.230957,498.647400 640.371643,505.185425 644.309143,510.265961 
	C647.549744,508.721649 648.816467,506.439728 648.608948,503.585266 
	C648.271606,498.944855 650.605286,495.690704 653.573853,492.601440 
	C656.634399,489.416534 660.445007,487.392273 664.238403,485.286621 
	C666.024902,484.294952 668.574097,483.419861 666.101379,480.031250 
M679.962830,476.415466 
	C677.381897,476.928741 675.766724,478.427856 675.630676,481.102234 
	C675.575806,482.179108 676.595398,483.174835 677.531860,483.095032 
	C681.173706,482.784607 683.555908,480.359039 685.965210,477.967224 
	C684.398621,475.870850 682.445251,476.513062 679.962830,476.415466 
M429.935486,449.397705 
	C427.827301,450.288391 426.545105,451.817993 425.962311,454.066010 
	C432.832825,455.478790 434.263947,454.508240 434.436157,448.593262 
	C433.043671,448.049438 431.847443,448.771515 429.935486,449.397705 
z"/>
<path fill="#000000" opacity="1.000000" stroke="none" 
	d="
M276.531372,1.000000 
	C282.407562,5.142096 287.858093,9.185840 294.163055,11.957464 
	C299.745056,14.411254 302.487183,18.617138 302.298615,24.970701 
	C302.046600,33.461880 302.515289,41.974628 302.255920,50.465332 
	C302.091248,55.856564 303.956512,60.445309 305.942871,65.270355 
	C309.291077,73.403503 314.861603,80.158272 319.058807,87.757126 
	C322.631073,94.224525 323.745636,101.121887 321.627106,107.469658 
	C319.581299,113.599403 315.913696,119.296516 313.871033,125.610512 
	C313.486847,126.798073 312.285248,127.749474 310.775024,127.805168 
	C309.341156,127.390892 309.956268,125.699692 309.007629,124.986694 
	C308.796875,125.162064 308.394684,125.358818 308.411133,125.510056 
	C309.010834,131.025833 306.958923,135.468857 303.386169,139.594315 
	C300.122314,143.363052 297.440460,147.629669 294.317444,151.528946 
	C292.604797,153.667282 292.465027,155.511108 293.909698,157.843155 
	C298.031799,164.497208 301.922699,171.294830 306.065216,177.935776 
	C308.009949,181.053467 308.407990,184.020523 306.566742,187.153915 
	C304.655365,187.653656 304.129059,186.247421 303.400116,185.183136 
	C296.338440,174.873138 289.221497,164.600098 282.262482,154.221237 
	C279.896576,150.692673 277.392517,147.561035 273.239105,145.981964 
	C271.741302,145.412537 270.457214,144.174255 269.211060,143.086090 
	C268.338837,142.324463 267.613617,141.292343 268.167389,139.999863 
	C268.738617,138.666611 270.021362,138.798279 271.167450,138.708008 
	C274.511658,138.444565 277.290161,140.011292 280.103333,141.472534 
	C281.830902,142.369904 283.267731,143.969330 285.506714,143.762192 
	C285.735596,143.514069 286.150055,143.275055 286.152252,143.032242 
	C286.273682,129.807434 297.360748,122.825050 303.295776,112.918045 
	C303.939758,111.843094 305.075562,111.221733 306.303345,111.754898 
	C308.460693,112.691742 307.932220,115.038948 309.030151,118.052628 
	C309.620209,107.832832 310.144073,98.898438 310.646301,89.962837 
	C310.773407,87.701462 309.989410,85.700676 308.681335,83.900482 
	C307.898438,82.823013 307.123260,81.721115 306.205780,80.763145 
	C294.743164,68.794556 289.845459,54.515377 290.548401,38.017731 
	C290.788025,32.393860 290.059662,26.716173 289.586548,21.078772 
	C289.250977,17.080368 287.379913,14.278464 283.077789,13.388182 
	C269.177002,10.511548 255.539993,10.257771 241.769409,14.856325 
	C230.250259,18.703032 219.139481,23.623278 207.644333,27.360580 
	C198.543839,30.319328 188.951935,31.274780 179.117935,31.737288 
	C166.610901,32.325516 153.938797,30.026525 141.534958,33.284431 
	C130.575546,36.162952 120.179726,40.300316 112.340981,48.690254 
	C101.448105,60.349094 88.631744,69.483734 75.432846,78.134186 
	C65.339317,84.749390 57.269016,92.512833 52.095402,103.949150 
	C47.047691,115.107162 40.503048,125.825050 33.147194,135.635147 
	C25.793587,145.442261 19.391685,155.832901 12.450069,165.873718 
	C3.176414,179.287720 2.630964,193.391098 11.360134,207.571991 
	C14.234749,212.241928 16.870153,217.039230 18.814451,222.242950 
	C21.966000,230.677719 18.203623,238.582779 17.404448,246.698074 
	C17.082071,249.971664 15.735257,253.130707 15.094874,256.389099 
	C12.658943,268.783569 17.778214,279.118744 29.077068,284.761475 
	C32.946999,286.694153 37.001888,288.269287 40.473843,290.946686 
	C41.737881,291.921478 43.185036,292.128296 44.691669,291.426575 
	C42.513203,286.006836 43.605652,282.668335 48.436390,282.942078 
	C59.468735,283.567230 65.208488,276.583221 70.772606,269.044403 
	C74.563515,263.908081 78.749481,259.182404 83.918060,255.444199 
	C90.891159,250.400833 95.481049,243.009048 101.927765,237.482300 
	C105.718155,234.232849 108.902321,235.447311 109.846367,240.145981 
	C110.238823,242.099304 109.293953,243.320251 108.077660,244.520325 
	C105.691681,246.874466 103.743690,249.558472 101.912460,252.360168 
	C100.278114,254.860611 99.567825,256.993744 101.014160,260.154175 
	C103.432243,265.437988 97.336273,274.050964 91.616768,273.974335 
	C89.977669,271.003448 93.335831,268.378113 92.160301,264.765900 
	C87.333626,269.498077 81.953018,273.418396 78.387962,278.590240 
	C73.208435,286.104218 66.231293,288.950714 57.219296,289.682312 
	C66.625549,291.995117 91.050423,289.891479 98.662071,286.405731 
	C100.713051,285.466492 101.819801,284.216400 101.697746,281.837463 
	C101.281960,273.733246 105.051903,266.993805 109.193893,260.526337 
	C110.934158,257.809052 111.252068,255.339874 111.162140,252.169037 
	C110.785110,238.873825 114.759605,226.593750 121.022301,214.992111 
	C121.216400,214.632523 121.811073,214.489197 122.669487,213.975464 
	C127.198471,221.194931 118.168175,227.905792 122.211769,235.189713 
	C124.168533,232.045197 125.944107,229.117859 127.803444,226.244736 
	C128.440704,225.260025 129.332520,224.287094 130.641373,224.556366 
	C132.351898,224.908249 132.188873,226.451416 132.330902,227.762283 
	C132.611603,230.353409 131.635620,233.103943 133.227921,235.520416 
	C142.270828,235.482239 143.603455,237.030136 142.639389,246.759506 
	C142.483704,248.330551 142.796051,249.349792 144.196030,250.005554 
	C145.100388,250.429169 146.004059,250.859268 146.931030,251.228760 
	C155.258377,254.548035 155.991898,254.925537 151.958267,262.670349 
	C148.393127,269.515656 150.442123,276.759613 148.377426,283.532410 
	C147.943497,284.955811 147.851273,286.489441 147.363205,287.889160 
	C145.937912,291.976685 143.872009,292.589355 140.152054,290.245209 
	C137.600906,288.637573 136.396881,285.477234 133.407501,284.415833 
	C130.733856,283.466492 128.234680,282.227234 125.920250,280.071838 
	C128.238297,285.216858 141.357590,302.516815 144.923935,305.132263 
	C147.603195,303.253510 148.717148,300.342468 149.907974,297.420074 
	C157.533173,278.707245 166.856125,260.908936 179.217056,244.860443 
	C187.910370,233.573715 199.286926,226.061813 211.985428,219.404495 
	C222.656998,213.809799 233.384644,208.903854 244.732224,205.182053 
	C261.032074,199.835953 277.686157,195.757645 294.343292,191.703445 
	C298.327942,190.733612 302.167633,191.106522 306.130768,192.250015 
	C305.455658,195.035599 303.139160,194.899048 301.376617,195.437592 
	C278.614838,202.392212 255.880569,209.441727 233.054352,216.179245 
	C209.440735,223.149185 191.115005,236.658447 177.260925,257.250458 
	C172.033066,265.020874 168.026367,273.218048 163.756927,281.357391 
	C160.084412,288.358765 160.458130,288.554810 168.137405,290.365601 
	C168.443726,294.729065 169.062866,299.161255 168.281174,303.619720 
	C167.727737,306.776367 166.099243,308.732025 162.565155,308.643188 
	C158.721725,308.546570 158.587540,306.049408 158.597672,303.157959 
	C158.602951,301.648132 159.345856,299.754211 157.356186,298.733398 
	C154.248230,302.040161 154.677170,309.517212 158.023239,311.969208 
	C159.331329,312.927765 160.549774,312.630127 161.754608,311.971558 
	C164.906143,310.248871 167.755539,310.208496 170.162918,314.046936 
	C174.203644,308.967743 178.528900,309.815216 183.284286,312.177582 
	C186.454132,313.752289 187.238342,316.051270 185.584351,318.576233 
	C183.827484,321.258209 183.409515,323.952148 183.138077,326.977020 
	C182.688110,331.991364 181.264481,332.208984 175.787689,332.019745 
	C172.159012,331.894318 168.527344,331.976593 165.001709,331.165375 
	C158.457855,329.659637 152.857742,327.860199 147.701279,321.956665 
	C139.620148,312.704712 131.877182,303.240204 124.407959,293.519836 
	C118.137596,285.359680 119.804428,283.860168 108.796844,290.280762 
	C97.156494,297.070435 84.106148,299.193573 70.941978,300.135986 
	C57.468800,301.100494 43.943054,301.009338 31.021317,296.214264 
	C20.218702,292.205505 10.965146,286.399780 5.322875,275.534241 
	C2.655029,270.396637 1.466671,265.496246 1.771955,259.904816 
	C1.989694,255.916809 1.839976,251.907074 1.806318,247.907440 
	C1.763040,242.764709 2.069669,237.812698 3.855851,232.776642 
	C6.709773,224.730194 6.867330,216.496002 2.498338,208.629105 
	C1.827239,207.420715 1.851778,205.731277 1.845819,204.263138 
	C1.797799,192.430481 1.861157,180.597305 1.789617,168.764877 
	C1.772544,165.940964 2.308656,163.612244 4.698241,161.747421 
	C7.788071,159.336121 9.830865,155.999390 11.203485,152.403976 
	C14.840170,142.878098 20.953053,135.055618 27.705208,127.634644 
	C35.192860,119.405304 40.897232,109.877129 45.132771,99.792824 
	C49.714436,88.884422 57.941380,81.750206 66.659996,74.764572 
	C74.176712,68.741936 81.725464,62.724655 89.247169,56.755081 
	C99.361176,48.728134 108.446602,39.480297 119.222740,32.216934 
	C133.893661,22.328409 149.505936,18.174646 166.988785,21.933529 
	C172.270645,23.069149 177.324875,23.100014 182.475449,20.508474 
	C186.430435,18.518511 190.969589,17.550516 195.546204,17.678942 
	C197.963715,17.746778 200.150742,17.071091 202.266357,16.038639 
	C217.227371,8.737389 233.025513,4.388694 249.544754,2.526001 
	C250.841339,2.379802 252.085205,1.766070 253.676788,1.184813 
	C261.354248,1.000000 268.708496,1.000000 276.531372,1.000000 
M112.871605,276.778687 
	C108.774399,276.229858 108.459007,278.678070 108.626976,282.059937 
	C111.657539,281.465973 114.200256,281.002716 112.871605,276.778687 
z"/>
<path fill="#000000" opacity="1.000000" stroke="none" 
	d="
M362.468628,689.000000 
	C356.296631,682.774841 352.702728,674.843445 346.008148,669.389343 
	C344.505890,668.165466 343.588165,666.234497 342.361176,664.660339 
	C338.514313,659.725098 336.751801,653.704712 331.659271,649.132080 
	C326.334045,644.350464 325.188934,636.227600 323.737915,629.023438 
	C323.150665,626.107666 322.777893,623.109070 322.717499,620.139832 
	C322.672241,617.914185 321.274811,614.752197 325.118591,614.087585 
	C329.041504,613.409302 330.509064,616.569397 332.122009,619.161560 
	C332.686615,620.069031 332.532318,621.419189 332.723724,622.564270 
	C335.010529,636.244934 342.853882,647.332947 349.951782,658.684448 
	C353.710449,664.695557 355.506653,664.469543 359.581970,658.785339 
	C367.255615,648.082397 377.094513,639.709229 387.837189,632.308838 
	C389.514465,631.153381 391.672058,628.997559 393.535431,631.104736 
	C395.282898,633.080811 392.874542,634.895569 391.509674,636.031372 
	C382.467590,643.555847 381.288879,652.690857 383.838257,663.766113 
	C385.669708,671.722534 388.031738,679.859375 387.093689,688.644775 
	C378.979095,689.000000 370.958191,689.000000 362.468628,689.000000 
z"/>
<path fill="#000000" opacity="1.000000" stroke="none" 
	d="
M87.578758,518.575562 
	C93.846924,511.865997 100.101158,505.612823 105.439758,498.551117 
	C106.510139,497.135223 108.456192,495.476135 107.268913,493.716644 
	C102.913048,487.261292 106.517845,480.379730 105.809601,473.760376 
	C105.686699,472.611633 105.868027,471.430939 105.900772,470.264801 
	C106.185425,460.126740 104.617111,459.156982 95.192802,463.583466 
	C89.768585,466.131165 84.432724,468.916046 78.856613,471.076843 
	C73.678619,473.083313 70.572861,470.151459 71.183151,464.634857 
	C72.407478,453.567963 73.251717,442.449982 77.371544,431.923584 
	C78.735222,428.439331 76.762451,427.090240 73.584236,426.608856 
	C65.378143,425.365753 63.034401,420.736481 66.073471,412.946930 
	C68.756378,406.070251 68.376442,398.572784 69.664574,391.400726 
	C70.075394,389.113373 70.384216,386.807526 70.727104,384.508240 
	C70.913651,383.257294 71.422440,382.234131 72.790527,382.047211 
	C74.538620,381.808411 75.024689,383.094025 75.449928,384.421326 
	C77.708557,391.471008 76.269821,398.606171 75.929024,405.711395 
	C75.809792,408.197296 75.369064,410.671600 75.318588,413.156158 
	C75.209137,418.543457 76.963264,419.820984 82.812828,419.157471 
	C93.886902,417.901215 104.937317,416.280090 116.137611,416.702301 
	C120.330765,416.860382 124.450966,417.372192 128.187210,419.440460 
	C129.700623,420.278198 130.766525,421.554199 130.622650,423.939270 
	C126.070549,426.655396 120.644142,426.666168 115.472984,427.162506 
	C108.356468,427.845551 101.175812,428.105286 94.024384,428.078583 
	C90.342400,428.064819 88.598961,429.605499 87.452660,432.803192 
	C84.640388,440.648193 82.215889,448.588013 80.749016,456.805511 
	C80.484322,458.288300 79.877602,459.889740 81.065239,461.083099 
	C82.528542,462.553467 84.198547,461.502991 85.700386,460.888733 
	C92.020248,458.303864 98.369476,455.782196 104.616966,453.030762 
	C119.630264,446.418854 135.411957,442.368866 151.330902,438.740540 
	C152.787537,438.408539 154.330322,438.154510 155.623413,437.468842 
	C158.138168,436.135529 159.564178,433.888672 159.626266,431.006500 
	C159.687698,428.154602 157.576385,427.016205 155.319595,426.150635 
	C150.034653,424.123718 144.717880,422.178833 139.449631,420.109924 
	C138.122986,419.588928 136.289093,419.089905 136.777496,417.098907 
	C137.281403,415.044617 139.264603,415.533722 140.552109,415.788483 
	C145.604736,416.788177 150.596497,418.090942 155.631134,419.188110 
	C158.324844,419.775085 160.675446,420.117310 160.007294,415.783051 
	C159.474106,412.324249 162.311264,413.099396 164.458176,413.015594 
	C166.589523,412.932373 168.611084,415.717468 171.660095,412.593903 
	C162.906265,410.965546 157.320526,405.281891 152.114426,399.563721 
	C143.916336,390.559326 133.283493,387.254333 122.015541,385.469666 
	C111.334656,383.777985 100.488304,383.490265 89.663277,383.268646 
	C86.190529,383.197540 82.697212,382.689667 79.277344,382.042969 
	C77.365036,381.681274 75.146141,380.859009 75.469482,378.232056 
	C75.763336,375.844666 77.834793,375.690033 79.713310,375.727356 
	C96.201775,376.054749 112.757759,375.643524 129.149567,377.087677 
	C137.742569,377.844757 146.147461,381.601776 153.287140,387.196289 
	C159.149994,391.790314 164.070496,397.564240 170.564285,401.400513 
	C174.044281,396.360718 173.445328,392.672638 168.911240,389.434448 
	C165.388519,386.918518 161.509583,384.740967 158.484344,381.717285 
	C146.954041,370.192841 141.857864,355.575043 139.809784,339.823273 
	C139.242920,335.463501 140.908890,331.187561 144.367401,327.941345 
	C146.709091,329.660675 146.432495,331.645996 145.970718,333.319611 
	C143.864502,340.953003 146.023849,347.838074 149.519089,354.451233 
	C152.709793,360.488251 155.971878,366.501953 159.523865,372.330048 
	C163.935410,379.568512 170.507385,383.753235 178.972290,384.821930 
	C183.368927,385.377014 187.279739,387.483948 192.291901,386.052887 
	C198.662216,384.234100 200.057465,383.498383 199.013977,376.740967 
	C198.919266,376.127533 199.077774,375.475037 199.136719,374.561371 
	C202.148590,373.827789 203.855484,375.710083 205.627823,377.344788 
	C206.233963,377.903870 206.851288,378.539490 207.209320,379.265503 
	C211.664246,388.299072 217.747879,395.725677 227.194061,399.946228 
	C227.651520,400.150604 227.814835,401.013275 228.107315,401.554901 
	C224.009552,404.203888 219.355164,403.296509 214.296524,398.834381 
	C212.016159,396.822937 210.316132,395.323975 207.169708,398.168579 
	C203.720947,401.286469 204.177567,403.466949 207.079514,406.313904 
	C216.848373,415.897766 229.117981,420.369446 242.010483,423.612671 
	C255.285721,426.952148 269.079224,427.120911 282.386200,429.903595 
	C295.293182,432.602692 308.033661,433.462036 321.037842,431.740906 
	C322.711334,431.519379 324.316895,431.312592 325.807526,430.473145 
	C335.061401,425.261902 343.291321,418.859192 349.362610,410.006927 
	C351.126434,407.435181 352.840759,404.755890 352.436737,401.410004 
	C351.026337,400.977325 350.277344,401.865021 349.601685,402.460083 
	C337.258728,413.330383 322.405914,413.842712 307.179352,412.801086 
	C304.691650,412.630890 302.222870,412.164215 299.734711,412.025299 
	C296.697327,411.855621 294.842560,410.182831 294.999603,407.364532 
	C295.148163,404.697632 297.912170,404.876343 299.746521,404.963257 
	C304.559387,405.191467 309.383698,405.587799 314.147430,406.294861 
	C317.256134,406.756287 320.016266,406.484955 322.832245,405.065430 
	C332.497131,400.193420 342.030518,395.018738 352.298218,391.457458 
	C354.366699,390.740021 355.220825,389.604980 354.750580,387.366577 
	C354.440826,385.892212 354.569336,384.240814 355.498108,383.021729 
	C361.811768,374.734894 358.801849,365.510101 358.256927,356.537689 
	C358.188263,355.407440 357.557281,354.279327 358.492432,353.093750 
	C361.073792,352.090698 362.011200,353.682098 362.548157,355.843597 
	C363.232910,358.600464 364.898376,360.048645 367.631287,358.784546 
	C376.726990,354.577271 386.223846,356.068787 395.622711,356.676483 
	C409.551727,357.577118 423.099670,354.416748 436.829895,353.217163 
	C447.792145,352.259369 458.775543,351.758820 469.543304,354.831451 
	C471.774109,355.468018 473.940796,356.384491 476.057495,357.346893 
	C477.537109,358.019592 479.413818,358.797913 478.767426,360.918976 
	C478.198303,362.786499 476.301788,362.357147 474.890778,362.257538 
	C470.744934,361.964874 466.592285,361.646301 462.475067,361.093781 
	C450.108490,359.434296 437.983246,361.175751 425.729889,362.785400 
	C413.847900,364.346252 401.801025,363.741028 389.894562,361.854370 
	C383.600494,360.857086 377.254303,360.940765 370.953583,361.462250 
	C365.003021,361.954773 362.492493,364.937469 363.521454,370.842896 
	C366.835571,389.863403 360.487610,406.225861 350.209534,421.608368 
	C347.168884,426.159058 343.671906,430.387329 342.897827,436.168549 
	C342.361053,440.177765 338.147552,441.529999 335.856903,444.324371 
	C331.956390,449.082550 328.214691,454.019470 323.177612,457.709290 
	C321.971222,458.592987 320.804596,459.570404 319.491394,460.260803 
	C316.634735,461.762634 312.943665,463.512207 311.053650,460.079315 
	C309.294281,456.883728 313.193939,455.610718 315.447021,454.036530 
	C322.512939,449.099854 328.855621,443.317383 335.416718,437.203278 
	C307.867004,439.965027 281.203979,437.390442 254.745422,432.232269 
	C246.930069,430.708679 239.304657,428.192352 231.618179,426.038300 
	C229.621994,425.478882 227.264755,424.622620 226.161331,426.658051 
	C224.631287,429.480438 224.764847,432.809967 226.193878,435.767517 
	C227.412491,438.289551 229.646545,436.969574 231.518158,436.671143 
	C234.339676,436.221313 238.239670,433.902374 239.518524,437.418884 
	C240.704849,440.680969 236.151382,441.131409 233.941635,442.605316 
	C233.386292,442.975739 232.715103,443.172455 231.581177,443.679871 
	C236.176636,448.273254 241.234711,447.734802 245.744888,448.629242 
	C255.877914,450.638824 265.482666,448.034668 275.118622,445.247894 
	C280.372589,443.728455 285.815887,442.819244 291.214264,441.863708 
	C293.629547,441.436127 296.155304,441.427979 299.655853,442.427856 
	C293.011353,449.153442 283.838104,447.661041 276.210602,451.862030 
	C283.164825,454.472198 289.816742,453.016663 296.003418,454.651978 
	C298.891754,455.415466 301.842834,455.967072 304.686584,456.864655 
	C306.552124,457.453491 308.566864,458.172699 308.339569,460.880188 
	C308.131683,463.356628 306.087738,463.499817 304.433350,464.089935 
	C295.296509,467.349060 285.901520,465.819489 276.710388,464.927643 
	C258.564606,463.166870 240.887894,459.215973 224.640701,450.444489 
	C222.454300,449.264069 220.922073,449.824646 219.301147,451.345947 
	C217.439728,453.093018 215.989075,455.089569 215.136429,457.490143 
	C210.683350,470.027863 201.173019,475.962555 185.778625,473.052887 
	C180.955429,472.141266 176.545532,470.366272 172.534119,467.643799 
	C170.041336,468.759583 169.352676,470.976135 169.476456,473.057404 
	C169.703766,476.879547 167.801010,479.306061 165.168060,481.549835 
	C158.956360,486.843384 152.766769,492.163177 146.600327,497.509338 
	C145.154205,498.763092 143.132538,499.588165 142.892120,501.998291 
	C144.824829,503.583710 147.089294,502.947449 149.105713,502.711243 
	C153.523041,502.193695 156.425034,504.738464 159.081924,507.453613 
	C161.367889,509.789703 160.472824,512.042114 157.645172,513.411865 
	C154.430649,514.968994 150.944687,515.129333 147.437195,515.428833 
	C143.005783,515.807190 138.212982,515.545532 134.263855,519.868896 
	C140.985504,522.138733 147.368500,521.593811 153.496841,522.663452 
	C157.261459,523.320557 161.051224,523.833923 164.830200,524.408447 
	C168.300125,524.936157 169.596268,527.048889 169.300201,530.409363 
	C168.982483,534.015381 166.069550,534.072815 163.736557,533.985901 
	C156.917923,533.731873 150.246933,532.047729 143.505173,531.251770 
	C135.163605,530.266907 126.786179,529.709229 118.449684,528.423401 
	C113.140953,527.604553 94.460167,541.349670 92.489296,546.509705 
	C92.118225,547.481262 92.035789,548.451782 92.925987,549.936646 
	C101.214920,549.817993 109.610092,544.443970 118.838112,547.894287 
	C117.022423,551.764465 113.939987,551.799133 111.069893,552.485535 
	C108.713722,553.048950 105.357674,552.575317 105.368988,556.627136 
	C105.379623,560.444031 108.031952,560.518311 110.816940,560.875671 
	C119.269356,561.960205 124.415779,567.455750 128.083374,574.559753 
	C129.725784,577.741089 131.692917,579.964233 135.505722,580.221436 
	C137.942398,580.385803 139.785812,581.836121 141.302261,583.739441 
	C150.341812,595.085510 162.647934,602.573364 173.897491,611.312317 
	C176.936523,613.673157 180.983521,615.177551 180.330597,620.420105 
	C179.427399,627.672363 174.834900,630.842834 168.236786,627.566589 
	C161.386765,624.165344 154.691071,620.152649 149.841476,614.040894 
	C144.896057,607.808472 137.556091,606.718689 130.787201,604.471069 
	C128.662964,603.765747 126.150230,604.037048 124.192909,602.594055 
	C121.624008,600.700317 120.133553,601.563416 118.679596,604.144775 
	C117.143188,606.872681 118.483131,608.293030 120.596405,609.283203 
	C123.454796,610.622375 126.502480,611.551575 129.397278,612.820251 
	C135.841385,615.644531 141.940338,619.057312 146.964737,624.087097 
	C148.486816,625.610779 149.968246,627.240051 151.144592,629.033325 
	C156.955124,637.891052 154.657349,642.923096 144.195618,644.269836 
	C141.076431,644.671387 137.965881,644.943726 134.753281,644.564331 
	C131.005539,644.121704 127.162750,643.766724 123.650925,646.160156 
	C120.924667,648.018250 118.524521,646.064575 116.310303,644.693726 
	C112.836914,642.543152 109.545601,641.317505 105.752319,644.155701 
	C103.529236,645.818909 101.498596,644.651611 99.453743,643.097290 
	C96.414833,640.787170 93.140625,638.775085 89.888161,636.762939 
	C88.505119,635.907349 86.923698,635.372375 84.402290,634.221558 
	C87.681259,644.823181 95.910797,650.367615 102.260643,658.286804 
	C102.761520,654.787842 100.390526,652.948608 99.958679,650.536133 
	C99.407570,647.457397 100.386597,645.986084 103.608116,646.473511 
	C108.465927,647.208618 118.510300,657.047852 119.714531,661.664856 
	C120.755997,665.657837 118.939865,666.568298 115.653229,666.160645 
	C112.209740,665.733582 108.730515,665.272095 105.946609,662.955444 
	C101.794220,669.239441 100.503098,669.516785 94.754013,665.278992 
	C92.324066,663.487732 89.803108,662.023376 86.984436,660.874817 
	C81.693642,658.719055 78.055733,654.636108 75.171440,649.785461 
	C73.745316,647.387146 72.600952,644.763062 70.294975,642.708191 
	C67.406326,646.069580 68.557945,650.017212 68.323776,653.680237 
	C68.196465,655.671631 68.543045,657.711609 68.261337,659.670105 
	C67.916771,662.065674 69.976791,665.737427 66.368103,666.544922 
	C62.995724,667.299561 59.330791,666.501526 57.255806,662.889221 
	C56.934784,662.330383 56.585266,661.787842 55.866013,660.611511 
	C54.773201,663.133362 53.923889,665.216370 52.976803,667.253967 
	C50.853046,671.822937 47.630272,672.295837 44.034237,668.736145 
	C40.256706,664.996887 39.839909,660.437073 41.165188,655.762329 
	C42.754635,650.155701 42.836311,644.868225 41.285645,639.124573 
	C39.189117,631.359009 41.716354,623.486023 43.445141,616.005676 
	C47.190670,599.798889 51.088699,583.657715 52.921444,567.094116 
	C53.343674,563.278137 56.046196,560.534119 57.470280,557.225830 
	C64.110596,541.799683 75.720421,530.332458 87.578758,518.575562 
M116.078468,454.556854 
	C111.542267,456.681305 110.590248,460.080933 111.743790,464.828674 
	C112.714584,468.824310 112.836998,473.025787 113.339600,477.135529 
	C113.653267,479.700348 113.571327,482.389648 115.600319,484.750824 
	C127.837219,480.141266 139.484436,474.513855 151.126511,468.877441 
	C164.190231,462.552765 164.185715,462.542419 162.644043,448.388733 
	C162.572220,447.729309 162.538589,447.057739 162.383881,446.416748 
	C161.896729,444.398376 160.896027,443.336853 158.510529,443.621246 
	C144.120529,445.336853 129.942551,447.826508 116.078468,454.556854 
M182.369873,449.833771 
	C184.262283,447.064209 187.115509,447.718719 190.416000,448.300079 
	C189.522552,446.788116 189.041901,445.948151 188.536072,445.123657 
	C186.928207,442.502716 185.120438,439.908966 188.867874,437.472687 
	C189.322037,437.177460 189.518356,436.348297 189.657578,435.727020 
	C191.164337,429.002838 186.191696,416.216278 180.086975,411.944336 
	C177.172638,421.108002 173.420395,429.758087 168.255219,437.732452 
	C167.231064,439.313629 168.001022,440.603668 169.365143,441.568909 
	C173.420944,444.438599 177.006500,448.010040 182.369873,449.833771 
M202.389420,424.398621 
	C205.500732,432.639771 204.899567,441.587128 207.010620,450.825745 
	C210.872620,446.474304 209.951248,440.695801 213.318237,437.320068 
	C215.371613,436.783813 215.669144,439.525482 217.451828,438.930634 
	C221.724258,432.614349 220.966476,426.313721 215.076523,420.891083 
	C212.315277,418.348907 208.945587,416.454712 207.251358,412.939514 
	C199.536362,417.314819 199.536362,417.314819 202.389420,424.398621 
M185.313309,464.316132 
	C187.797821,465.146088 190.191849,464.521667 192.632721,463.981476 
	C198.014923,462.790405 199.259140,460.725708 197.783905,454.937744 
	C196.209198,454.920929 194.901428,455.735992 193.808853,456.672394 
	C188.517212,461.207855 183.436859,462.035278 178.144775,456.550476 
	C177.067963,455.434448 175.375229,453.818115 173.343369,455.126129 
	C172.469498,455.688690 172.368240,456.799774 172.465500,457.834686 
	C172.700531,460.335632 174.563995,461.138672 176.587799,461.411041 
	C179.427887,461.793213 182.061356,462.660553 185.313309,464.316132 
z"/>
<path fill="#000000" opacity="1.000000" stroke="none" 
	d="
M156.675293,175.659241 
	C163.355270,170.216232 170.456894,165.842224 176.553146,159.865936 
	C174.279358,157.251709 171.497864,156.464706 169.000092,155.315277 
	C157.604462,150.071259 147.757339,143.140579 140.587585,132.453445 
	C137.646515,128.069550 132.169815,126.111511 127.377129,123.839287 
	C123.167221,121.843346 118.772888,120.239021 114.538429,118.291275 
	C111.866188,117.062103 109.289856,115.574608 107.138733,111.817871 
	C117.786430,113.649734 126.976944,116.611801 135.820892,120.699715 
	C143.148163,124.086586 149.324814,129.010162 155.337372,134.416534 
	C159.821442,138.448517 164.742172,142.270187 170.359543,144.913177 
	C174.515930,146.868744 178.095505,149.520157 179.869476,154.015930 
	C180.548157,155.735901 181.638672,157.244492 183.581055,155.903885 
	C189.607071,151.744797 196.873169,150.700745 203.392975,147.786942 
	C206.913742,146.213455 207.321198,144.862961 205.743362,141.078323 
	C201.860214,131.764145 201.111191,121.696915 201.819855,111.725510 
	C202.769836,98.358879 194.527435,82.880394 182.699829,76.497108 
	C177.658630,73.776390 172.659119,70.682281 171.068848,64.563858 
	C173.046494,62.771946 174.446671,63.722462 175.839371,64.701721 
	C183.063721,69.781364 190.378876,74.745026 196.788986,80.877533 
	C202.904495,86.728188 206.565475,93.715912 207.455673,102.270798 
	C208.297882,110.364464 212.577835,117.731674 212.766327,126.033127 
	C212.871872,130.681580 213.220764,135.332657 213.676315,139.961258 
	C213.873978,141.969681 214.521042,144.209198 217.368805,143.432159 
	C219.681198,142.801208 222.150955,141.633728 221.370651,138.669830 
	C218.700821,128.528961 223.669479,120.448265 228.448776,112.478706 
	C231.777008,106.928818 235.757477,101.724792 239.838837,96.683838 
	C244.412552,91.034744 246.316711,84.832291 245.524628,77.656883 
	C245.104736,73.853203 244.852524,70.023766 244.714478,66.199104 
	C244.639282,64.116127 244.180649,62.383011 242.797302,60.720718 
	C238.552536,55.620029 237.442947,49.374630 236.815628,43.023872 
	C236.612228,40.964867 236.765961,38.690697 239.413422,38.401733 
	C241.692062,38.153030 242.958252,39.543850 243.446915,41.902340 
	C245.088943,49.827644 249.065598,56.761940 252.629150,63.931396 
	C256.032593,70.778702 255.653793,78.346619 254.799042,85.882172 
	C252.897430,102.646828 245.919495,117.609772 238.797394,132.553513 
	C238.529999,133.114578 238.560791,133.817764 238.440536,134.525864 
	C241.438751,137.155701 245.869888,134.071701 248.593552,137.012939 
	C248.396210,139.580048 246.325958,139.496613 244.887146,139.937393 
	C232.642456,143.688583 220.603729,148.079651 208.488571,152.190720 
	C190.096298,158.431808 173.853333,168.936630 158.317047,180.491165 
	C154.709030,183.174500 150.981689,185.698654 147.282867,188.257904 
	C146.057053,189.106049 144.536972,190.280670 143.308594,188.728867 
	C141.851974,186.888687 143.576630,185.697418 144.878922,184.684509 
	C148.692902,181.718048 152.552353,178.810043 156.675293,175.659241 
z"/>
<path fill="#000000" opacity="1.000000" stroke="none" 
	d="
M74.145660,216.236465 
	C80.681717,211.583069 86.818520,206.981400 93.801064,203.735382 
	C95.601006,202.898621 97.497971,202.187469 99.423912,201.724655 
	C102.185059,201.061188 105.471252,200.292297 106.869522,203.592728 
	C108.183907,206.695206 107.374756,209.641556 104.097878,211.719742 
	C96.793640,216.352097 89.238228,220.721558 82.533424,226.126373 
	C76.506462,230.984818 68.516846,234.113235 65.702721,243.145676 
	C70.801605,243.990585 73.288704,247.025528 72.364029,252.429886 
	C72.069633,254.150482 72.027100,255.850174 69.852180,256.119263 
	C67.849449,256.367035 66.321823,254.982605 66.113274,253.456390 
	C65.107155,246.093414 60.492310,247.008484 55.494160,248.464417 
	C52.224533,249.416855 49.027878,250.029755 46.042461,247.526550 
	C44.533653,246.261444 42.878757,247.183868 41.309673,247.699768 
	C38.473263,248.632309 35.663654,249.667984 32.783466,250.438644 
	C30.647280,251.010239 28.132299,251.242371 27.147976,248.755951 
	C26.238396,246.458328 26.077213,243.843674 28.062675,241.727127 
	C28.403597,241.363693 28.729149,240.927231 29.156269,240.711807 
	C40.047840,235.218781 47.043201,224.358902 58.474449,219.515533 
	C60.885101,218.494141 62.837963,217.606339 65.478905,218.379059 
	C68.510521,219.266068 71.416199,218.656708 74.145660,216.236465 
z"/>
<path fill="#000000" opacity="1.000000" stroke="none" 
	d="
M600.880798,239.818237 
	C598.472900,230.092041 593.360779,221.625793 592.298645,211.856369 
	C592.020752,209.300323 592.019775,206.949326 592.715759,204.509766 
	C594.773621,197.296219 597.116333,190.159088 600.573242,183.511078 
	C603.511658,177.860123 604.184631,172.448761 602.067932,166.303986 
	C600.350403,161.318130 599.023132,156.108505 598.683411,150.751877 
	C598.183655,142.872528 601.499146,135.815445 604.102478,128.791245 
	C606.816040,121.469315 611.314758,114.740776 606.528564,106.825584 
	C610.172668,104.788071 612.457703,105.775192 614.242920,108.528824 
	C616.783569,112.447662 616.875366,116.661446 615.645203,120.999809 
	C614.358337,125.538177 611.950684,129.556351 609.494934,133.506195 
	C603.386108,143.331589 604.016113,153.502823 608.160461,163.630768 
	C611.169434,170.984039 611.369873,178.084763 608.256958,185.323059 
	C606.679199,188.991653 605.179565,192.703781 603.396729,196.272369 
	C598.361755,206.350143 597.736389,216.756760 603.455627,226.372177 
	C610.189697,237.693558 608.663574,249.252350 606.949829,261.152008 
	C605.759277,269.419128 605.102356,277.682251 609.397217,285.477386 
	C611.080627,288.532684 610.279541,291.994324 610.244812,295.296326 
	C610.235718,296.165649 609.851440,296.942963 608.876404,297.118011 
	C607.678772,297.332947 607.071716,296.619659 606.653625,295.602966 
	C600.699585,281.123016 594.952881,266.665283 600.079773,250.500824 
	C601.105469,247.266983 601.506897,243.705872 600.880798,239.818237 
z"/>
<path fill="#000000" opacity="1.000000" stroke="none" 
	d="
M343.228210,309.583374 
	C345.487885,310.539429 346.116760,311.251160 344.606689,312.838013 
	C339.201691,318.517792 339.419556,324.925171 339.948975,332.153015 
	C340.267487,336.501556 337.627777,341.104553 336.826538,345.806000 
	C336.033356,350.460144 328.830078,354.041260 323.941711,352.926575 
	C320.775391,352.204529 318.299133,352.761932 315.441772,354.227234 
	C311.037598,356.485718 306.184875,356.903534 301.432678,354.921204 
	C298.978210,353.897339 296.558472,352.757843 294.228516,351.478546 
	C292.465942,350.510803 289.582642,350.686157 289.515106,347.754944 
	C289.446716,344.787170 292.967133,346.408173 293.892914,344.668762 
	C294.075165,343.800507 293.547791,343.467407 292.971863,343.092316 
	C291.713348,342.272705 289.413147,342.733795 289.505829,340.227692 
	C289.595062,337.814484 290.713989,336.074249 292.883240,335.123566 
	C296.540588,333.520813 300.163116,331.774231 303.946716,330.535126 
	C318.170898,325.876984 329.464569,315.761444 343.228210,309.583374 
M334.529053,328.282074 
	C334.300018,324.116425 331.720154,325.425934 329.619171,326.329010 
	C320.783295,330.127045 312.167023,334.442291 302.932770,337.291382 
	C301.457947,337.746399 299.774384,338.407013 299.201996,340.266846 
	C301.130371,342.688690 303.646881,343.141296 306.392090,342.451355 
	C312.674469,340.872406 319.033508,339.459045 324.885498,336.581146 
	C328.573090,334.767639 332.622620,333.264343 334.529053,328.282074 
z"/>
<path fill="#000000" opacity="1.000000" stroke="none" 
	d="
M160.862183,550.813965 
	C173.931686,555.176697 185.944641,561.085876 196.157730,569.529541 
	C205.932098,577.610535 212.750336,588.584290 218.553085,599.824402 
	C219.811157,602.261353 220.326508,605.074036 222.471146,607.195374 
	C223.776581,608.486633 224.294983,610.353577 224.274170,612.254761 
	C224.256348,613.883362 224.578690,615.618713 222.637787,616.584290 
	C220.553406,617.621338 219.118896,616.529907 217.779007,615.215637 
	C215.979202,613.450195 213.985062,611.439636 213.821960,608.995972 
	C213.275650,600.811096 205.074463,597.407410 202.712799,590.333313 
	C200.282776,583.054443 193.643677,579.246521 188.561096,574.054504 
	C179.524765,564.823547 168.760513,560.011230 156.590607,556.719910 
	C148.601547,554.559326 140.705551,553.394226 132.522064,553.332703 
	C128.235840,553.300476 123.979218,552.940002 120.614906,549.862854 
	C121.567528,546.737976 123.847496,546.751526 125.986084,546.630920 
	C137.716782,545.969604 149.139801,547.960083 160.862183,550.813965 
z"/>
<path fill="#000000" opacity="1.000000" stroke="none" 
	d="
M222.054840,269.970490 
	C217.991638,279.203278 215.220367,282.390320 210.260483,283.527893 
	C208.594254,279.016968 209.750778,274.963318 212.677750,271.537201 
	C215.009384,268.807983 216.105881,265.983337 215.709152,262.443909 
	C215.410767,259.781677 216.111786,256.947693 218.602386,256.026184 
	C226.459671,253.119049 232.600922,246.355438 241.543930,245.950699 
	C248.513885,245.635254 255.423660,244.567001 262.437164,244.603745 
	C267.886414,244.632324 268.620819,248.482910 269.098450,252.233749 
	C269.631744,256.421509 267.212128,258.687195 263.020233,259.122772 
	C253.442581,260.118011 243.830780,260.895996 234.311768,262.298096 
	C229.487030,263.008728 224.412827,264.196533 222.054840,269.970490 
z"/>
<path fill="#000000" opacity="1.000000" stroke="none" 
	d="
M487.986938,205.013474 
	C494.221558,211.737869 497.869293,219.775955 499.220032,228.726486 
	C500.447205,236.858215 498.091675,244.519745 495.047943,252.005569 
	C492.291962,258.783661 489.616486,265.602234 488.815765,272.979034 
	C488.671539,274.307648 488.307922,275.577118 488.959595,276.874786 
	C492.528931,283.982269 495.992096,291.144928 499.681396,298.189301 
	C500.981232,300.671234 501.656555,303.195679 501.239746,305.867126 
	C500.343903,311.608215 499.223907,317.314362 498.189270,323.033691 
	C497.949188,324.360931 497.134705,325.058289 495.789154,325.112396 
	C493.998688,325.184387 493.619781,323.770020 493.257782,322.519470 
	C491.386597,316.055176 490.387238,309.482605 492.189240,302.866058 
	C492.923798,300.168884 492.178864,298.247894 490.941437,295.890137 
	C486.882782,288.157104 481.644226,280.868103 481.718079,271.466522 
	C481.750946,267.274109 483.375916,263.703125 484.721313,259.973419 
	C486.641052,254.651428 488.574188,249.331390 490.650696,244.069336 
	C495.395111,232.046478 493.959778,220.495895 488.313019,209.172409 
	C487.832214,208.208282 487.996918,206.922241 487.931458,205.391876 
	C488.001221,204.998001 487.986938,205.013474 487.986938,205.013474 
z"/>
<path fill="#000000" opacity="1.000000" stroke="none" 
	d="
M276.827698,554.109985 
	C282.805206,559.588501 289.909760,563.274902 294.761871,569.678284 
	C292.645416,572.820251 290.656281,571.764282 288.272064,570.486511 
	C277.829437,564.890015 266.671234,560.402466 255.236649,558.283142 
	C246.987564,556.754272 240.355774,553.293030 233.604126,549.238098 
	C231.802811,548.156250 230.053680,546.779602 229.239853,544.232971 
	C231.253815,543.300842 233.793320,543.360779 234.520355,540.505737 
	C235.180283,537.914185 237.408066,538.948608 239.112350,539.462830 
	C244.641968,541.131226 248.983627,544.920532 253.833801,547.803528 
	C256.249207,549.239319 258.498352,551.308533 260.892181,547.423767 
	C262.036346,545.567078 264.235168,546.719604 265.898865,547.410400 
	C269.775269,549.020020 273.174744,551.435059 276.827698,554.109985 
z"/>
<path fill="#000000" opacity="1.000000" stroke="none" 
	d="
M323.032410,293.558411 
	C324.438049,288.709839 323.096954,285.924194 318.538177,284.268829 
	C308.045441,280.458832 297.070343,264.358002 298.752747,252.211029 
	C299.021027,250.273743 298.568420,247.752213 301.608643,248.020111 
	C304.337006,248.260529 303.610260,250.486542 303.531738,252.286484 
	C303.474579,253.596542 303.114258,255.369202 303.792908,256.161804 
	C310.462189,263.951111 314.111664,274.722412 325.343170,278.073273 
	C328.059448,278.883636 330.428986,280.505524 332.495697,282.527679 
	C341.002625,290.851166 338.622589,300.525391 327.201477,304.097931 
	C324.238373,305.024811 323.066467,303.372681 322.821533,300.957031 
	C322.588593,298.659485 322.891998,296.307556 323.032410,293.558411 
z"/>
<path fill="#000000" opacity="1.000000" stroke="none" 
	d="
M319.283813,212.116486 
	C321.135651,204.574509 315.049866,201.078293 311.863434,196.349442 
	C309.787689,193.268936 308.977325,190.623352 310.445862,187.267029 
	C314.496063,188.416016 326.920776,207.010422 327.252289,212.144592 
	C335.653687,214.345245 336.931366,217.287033 333.280518,227.141281 
	C328.644440,223.623474 325.244415,226.610672 322.007324,229.565887 
	C318.138367,233.097946 312.580750,233.117264 308.540985,236.564453 
	C306.280518,238.493362 303.314270,235.774857 304.093964,232.474228 
	C305.635834,225.946976 308.714447,220.327545 314.793488,216.876862 
	C316.687073,215.802017 318.741943,214.984177 319.283813,212.116486 
z"/>
<path fill="#000000" opacity="1.000000" stroke="none" 
	d="
M355.074219,264.949127 
	C363.886902,273.423431 365.676880,284.146179 366.205780,295.232422 
	C366.697754,305.544434 366.660339,315.903351 364.339264,326.008728 
	C363.053864,331.605194 365.294067,337.264740 363.325409,342.740112 
	C362.610229,344.729187 362.606262,346.980438 360.950623,348.991974 
	C357.155243,347.462555 356.264038,344.034973 357.046936,340.960907 
	C360.958801,325.600586 358.737457,309.923004 359.938568,294.439392 
	C360.322418,289.491241 360.642303,284.803619 358.531281,279.864441 
	C354.844147,271.237671 348.232605,265.384857 341.469910,259.553192 
	C339.584015,257.926971 337.292664,256.705811 336.188538,254.385422 
	C335.409760,252.748810 334.736664,250.698410 336.768616,249.497696 
	C338.533508,248.454819 339.967468,249.660767 340.960693,251.122833 
	C344.671417,256.585144 349.959381,260.420319 355.074219,264.949127 
z"/>
<path fill="#000000" opacity="1.000000" stroke="none" 
	d="
M513.692810,620.711975 
	C517.446411,613.824951 520.986023,607.236267 524.620911,600.700439 
	C525.767639,598.638611 526.593994,595.377258 529.921326,596.927612 
	C533.284241,598.494446 530.738892,601.030273 529.989929,602.891602 
	C524.999573,615.294434 516.718811,625.902039 510.731110,637.748169 
	C506.164368,646.783142 501.465027,655.732971 496.565765,664.586548 
	C495.298767,666.876160 494.391296,670.268616 491.076660,668.903442 
	C487.852661,667.575562 486.908081,664.340210 488.111755,660.865356 
	C490.429047,654.175598 494.475647,648.388977 498.591705,642.818970 
	C503.835663,635.722595 508.828491,628.490906 513.692810,620.711975 
z"/>
<path fill="#000000" opacity="1.000000" stroke="none" 
	d="
M257.745117,105.759415 
	C259.123077,103.848274 260.239014,102.185783 261.478119,100.620773 
	C263.940491,97.510658 266.784576,95.473007 270.649994,97.711472 
	C274.723511,91.000557 275.718109,82.295456 284.279602,78.839485 
	C284.928406,85.806732 283.596191,92.062546 278.511047,96.921814 
	C276.746246,98.608238 275.602966,100.234589 274.987488,102.641945 
	C273.752014,107.474457 270.462677,111.188049 266.896973,114.438766 
	C261.366089,119.481033 255.520325,124.177643 249.817398,129.031738 
	C248.278397,130.341675 246.614304,130.672485 244.140366,129.578796 
	C245.205292,119.845772 252.095856,113.338387 257.745117,105.759415 
z"/>
<path fill="#000000" opacity="1.000000" stroke="none" 
	d="
M699.377869,277.980103 
	C699.377808,279.705231 699.087585,281.194794 700.196106,282.164154 
	C708.178589,289.144104 707.888123,298.660614 708.029480,307.963409 
	C708.097412,312.439728 707.559753,316.925415 707.291321,321.406586 
	C707.191650,323.071106 707.278931,324.799561 705.028748,325.268585 
	C702.664612,325.761414 701.705627,324.310699 700.953613,322.520142 
	C699.389038,318.794830 698.699036,314.923157 698.621155,310.865601 
	C698.487305,303.897064 699.408875,296.871979 697.716248,289.975220 
	C697.283752,288.213257 697.085266,286.236786 696.130432,284.785889 
	C690.451050,276.155670 693.079468,268.138458 697.420898,260.046783 
	C698.816101,257.446350 699.500916,254.472946 700.641296,251.724365 
	C701.276062,250.194504 702.073059,248.438690 704.222961,249.048813 
	C706.524902,249.702057 706.358337,251.719330 706.241699,253.576523 
	C706.210815,254.067673 706.198059,254.685547 705.912231,255.016556 
	C700.274597,261.544586 701.583862,270.065948 699.377869,277.980103 
z"/>
<path fill="#000000" opacity="1.000000" stroke="none" 
	d="
M432.986145,628.180725 
	C420.501312,628.278503 408.512848,628.310303 396.527222,628.513000 
	C393.775818,628.559570 391.255341,627.867493 388.736603,627.050171 
	C387.542053,626.662476 385.924164,626.256592 386.106049,624.526550 
	C386.291382,622.764099 387.774139,622.104309 389.321564,621.896545 
	C394.916138,621.145691 400.598785,619.505249 406.108337,619.946655 
	C425.205322,621.476379 444.284332,622.248779 463.426117,621.384888 
	C463.826141,621.366882 464.246826,621.807495 464.674103,622.043091 
	C462.090424,625.337219 448.520935,627.972534 432.986145,628.180725 
z"/>
<path fill="#000000" opacity="1.000000" stroke="none" 
	d="
M666.212158,150.483398 
	C667.007568,162.000366 665.775574,172.759369 662.125488,183.318527 
	C660.045959,189.334320 661.709656,195.904617 660.381409,202.111206 
	C660.124451,203.311935 660.724670,204.818192 659.135132,205.574051 
	C657.515808,205.240982 657.859680,203.886292 657.654358,202.826431 
	C655.309143,190.721954 658.137451,179.146210 660.768372,167.427795 
	C662.745911,158.619659 662.002869,150.118881 658.118103,141.280334 
	C653.896179,131.674591 653.440063,120.955658 658.770691,110.968781 
	C659.543945,109.520210 660.276978,107.529655 662.284241,108.076126 
	C664.471252,108.671555 663.535522,110.720764 663.504150,112.323158 
	C663.415588,116.845451 662.477173,121.239960 661.370239,125.569824 
	C659.077332,134.538132 664.098633,141.976364 666.212158,150.483398 
z"/>
<path fill="#000000" opacity="1.000000" stroke="none" 
	d="
M263.923096,508.227020 
	C248.006927,501.211670 232.366943,494.485657 218.110962,484.883423 
	C219.930511,482.112701 221.717545,483.079895 223.339294,483.797211 
	C239.569351,490.975708 255.501831,498.883270 272.419006,504.392212 
	C279.185669,506.595764 285.743835,509.535004 292.850006,510.637512 
	C294.160126,510.840759 295.696259,510.795197 295.776550,512.625977 
	C295.846191,514.214539 294.571808,514.857178 293.346436,515.445679 
	C292.256042,515.969299 291.179779,515.950684 289.969177,515.752014 
	C281.110718,514.298706 272.403076,512.360046 263.923096,508.227020 
z"/>
<path fill="#000000" opacity="1.000000" stroke="none" 
	d="
M245.623032,280.654572 
	C247.730560,279.549561 249.344345,278.420746 250.147827,276.455688 
	C249.944046,274.923065 248.421066,274.514069 247.658371,273.466339 
	C246.686935,272.131836 246.763107,271.115997 248.186142,270.144104 
	C253.325073,266.634338 264.492981,268.988159 267.809967,274.204651 
	C269.967438,277.597656 268.863770,279.743835 265.274323,280.300964 
	C260.626862,281.022217 257.354706,282.398621 258.237183,288.048431 
	C258.524780,289.889862 257.217041,291.158600 255.485291,291.740295 
	C251.528961,293.069183 247.548508,294.117889 243.298798,293.116150 
	C238.442062,291.971405 237.577408,290.201569 239.909027,285.822327 
	C241.128723,283.531525 243.080826,282.024567 245.623032,280.654572 
z"/>
<path fill="#000000" opacity="1.000000" stroke="none" 
	d="
M310.086365,372.516724 
	C308.647949,371.581085 307.469208,370.907257 306.545441,369.979523 
	C304.634552,368.060516 305.556641,366.598297 307.693085,365.913177 
	C309.071716,365.471039 310.749664,365.214600 312.106812,365.575958 
	C320.077942,367.698303 326.545258,363.430573 333.323273,360.693237 
	C336.417542,359.443573 339.085846,357.371155 340.102112,353.825836 
	C340.564575,352.212463 341.547058,351.262299 343.441650,351.783661 
	C345.305450,352.296509 345.466095,353.661591 345.500854,355.266632 
	C345.794403,368.811340 337.152008,373.905518 326.196045,374.634369 
	C321.017822,374.978851 315.710388,373.381226 310.086365,372.516724 
z"/>
<path fill="#000000" opacity="1.000000" stroke="none" 
	d="
M328.023285,255.981750 
	C327.334747,258.243530 327.043335,260.250153 325.644501,261.824249 
	C324.633850,262.961609 323.341675,264.628662 322.011993,264.039978 
	C318.087433,262.302460 313.765625,261.821930 309.942108,260.036011 
	C307.746582,259.010468 308.357452,252.779785 311.145416,251.299881 
	C314.073792,249.745438 314.307190,247.454529 314.900665,244.857742 
	C315.922028,240.388687 318.690002,237.479645 323.381531,236.864792 
	C324.938354,236.660782 327.017090,236.068420 327.774963,238.070602 
	C328.592560,240.230530 327.029480,241.445404 325.176178,242.179260 
	C324.251251,242.545486 323.226410,242.723755 322.836639,244.292877 
	C324.902100,246.943726 329.283813,244.868729 331.324158,247.926910 
	C334.152893,252.166946 330.742065,253.692581 328.023285,255.981750 
z"/>
<path fill="#000000" opacity="1.000000" stroke="none" 
	d="
M161.615509,337.969055 
	C164.696671,338.986023 167.265213,340.095978 169.451462,341.992493 
	C171.493179,343.763641 172.603912,345.751740 171.806061,348.560669 
	C170.247467,354.048065 172.320068,358.257355 176.529144,361.734711 
	C177.994476,362.945312 180.212158,364.169556 178.354477,366.541656 
	C176.789017,368.540649 174.763794,368.416260 172.542999,367.304932 
	C167.526917,364.794800 165.543686,360.417480 164.929779,355.237000 
	C164.645050,352.834198 164.042465,351.593445 161.221786,351.043762 
	C156.317032,350.087891 153.349533,346.232880 151.340851,341.922302 
	C149.838913,338.699219 151.666275,336.477509 155.368423,336.743713 
	C157.337845,336.885345 159.275574,337.468170 161.615509,337.969055 
z"/>
<path fill="#000000" opacity="1.000000" stroke="none" 
	d="
M540.059692,124.107742 
	C537.750732,119.334084 532.355042,117.866364 530.372803,113.132111 
	C529.349609,110.688446 528.409363,108.597229 530.465393,105.897865 
	C535.633667,112.359314 540.753662,118.731857 545.816467,125.149590 
	C546.183594,125.614975 546.270508,126.411423 546.258301,127.049561 
	C546.060303,137.434204 547.529663,147.953491 542.064209,157.746887 
	C539.170959,162.931076 537.097046,168.609024 535.974243,174.554611 
	C535.717346,175.915131 535.543274,177.589249 533.439148,178.429306 
	C531.050049,174.901840 531.353699,171.022278 532.464905,167.327133 
	C534.851624,159.391022 537.281677,151.501190 541.450073,144.168777 
	C544.059509,139.578690 542.988647,134.171738 541.905273,129.123856 
	C541.560669,127.517838 540.786133,126.004066 540.059692,124.107742 
z"/>
<path fill="#000000" opacity="1.000000" stroke="none" 
	d="
M278.416656,422.770813 
	C273.894043,420.914276 269.732452,419.213440 265.567078,417.521759 
	C263.749115,416.783386 262.212860,415.799988 262.712280,413.491547 
	C263.226135,411.116455 265.315308,411.513092 266.774933,411.756592 
	C276.552948,413.387756 286.603699,413.573761 296.015381,417.191650 
	C299.142303,418.393616 303.009918,417.381958 306.518494,421.101318 
	C296.929352,424.403992 288.216949,427.470184 278.416656,422.770813 
z"/>
<path fill="#000000" opacity="1.000000" stroke="none" 
	d="
M238.769287,367.248871 
	C243.888123,376.110138 250.601913,382.779541 259.508759,387.188385 
	C261.653137,388.249817 262.994232,390.053223 262.050140,392.458282 
	C261.104218,394.867950 258.617645,394.820923 256.939423,393.877716 
	C244.658997,386.975555 234.096680,378.438690 230.222885,363.989105 
	C230.147003,363.705994 230.330353,363.353455 230.446289,362.758667 
	C234.376282,361.735901 236.196182,364.895996 238.769287,367.248871 
z"/>
<path fill="#000000" opacity="1.000000" stroke="none" 
	d="
M537.536499,245.672943 
	C537.434998,254.522446 541.299561,261.840485 543.948669,269.492737 
	C545.684509,274.506866 545.945984,279.580383 544.240723,284.672089 
	C543.811523,285.953918 543.329529,287.406494 541.632202,287.151215 
	C539.980957,286.902863 539.617371,285.326416 539.782654,284.043976 
	C541.162964,273.339081 536.677063,263.921936 533.540649,254.164978 
	C531.416626,247.557388 532.283569,243.715057 536.030579,239.247299 
	C538.026550,240.923630 537.014343,243.277618 537.536499,245.672943 
z"/>
<path fill="#000000" opacity="1.000000" stroke="none" 
	d="
M439.078247,604.351624 
	C436.424011,603.849426 434.219513,603.321167 432.612396,601.574951 
	C433.698059,599.676025 435.271820,599.788208 436.736084,599.745422 
	C447.023560,599.444336 457.232300,600.405029 467.408813,601.773682 
	C469.461365,602.049744 471.419556,602.688599 471.254822,605.376526 
	C471.106018,607.805054 469.276001,608.215515 467.370453,608.288818 
	C464.907593,608.383606 462.479675,608.607117 460.004578,607.782043 
	C453.363647,605.568237 446.285858,605.802246 439.078247,604.351624 
z"/>
<path fill="#000000" opacity="1.000000" stroke="none" 
	d="
M51.071182,192.093216 
	C57.292465,190.629791 62.295029,193.625122 64.067245,199.266998 
	C56.740559,204.869888 49.432346,203.944427 41.957916,198.945816 
	C41.788513,196.851974 43.402008,194.825165 42.791862,192.795563 
	C45.617233,190.466309 48.252575,193.711716 51.071182,192.093216 
z"/>
<path fill="#000000" opacity="1.000000" stroke="none" 
	d="
M540.405212,192.685532 
	C544.578552,194.243362 548.659363,200.313919 548.245178,205.801605 
	C547.448608,216.355515 543.767761,225.912201 536.831116,234.962143 
	C534.291382,229.982101 537.252197,226.461563 538.540649,223.203354 
	C542.374207,213.509201 545.020264,204.017319 539.998657,193.501816 
	C540.052063,192.999786 540.405212,192.685532 540.405212,192.685532 
z"/>
<path fill="#000000" opacity="1.000000" stroke="none" 
	d="
M266.671112,351.994476 
	C266.853119,350.250519 266.903656,348.913513 267.244934,347.655365 
	C267.644226,346.183319 268.364380,344.847900 270.228882,344.842865 
	C272.194031,344.837555 273.700836,346.067505 273.735901,347.718079 
	C273.850250,353.099762 277.104187,357.290771 278.669281,362.101440 
	C279.290955,364.012360 279.989380,366.237091 277.887665,367.484558 
	C276.031494,368.586273 274.432434,366.896027 273.102844,365.786865 
	C268.967926,362.337372 266.580872,357.961700 266.671112,351.994476 
z"/>
<path fill="#000000" opacity="1.000000" stroke="none" 
	d="
M519.190552,645.571106 
	C517.384033,650.227661 514.665283,654.099670 515.227966,659.155090 
	C515.472534,661.351929 513.884338,663.186401 511.492645,663.830200 
	C506.467865,657.837158 508.457916,643.605408 514.831665,639.610229 
	C515.838318,638.979309 516.954041,638.202209 518.031738,639.082520 
	C520.026367,640.711792 519.171143,643.064209 519.190552,645.571106 
z"/>
<path fill="#000000" opacity="1.000000" stroke="none" 
	d="
M663.984192,217.018494 
	C663.378113,227.816971 662.748230,238.242310 659.551575,248.218063 
	C658.786560,248.142029 658.021606,248.065994 657.256592,247.989960 
	C658.162415,234.368820 659.068176,220.747681 659.973938,207.126541 
	C663.575256,209.844193 662.882324,213.493011 663.984192,217.018494 
z"/>
<path fill="#000000" opacity="1.000000" stroke="none" 
	d="
M348.440704,307.145660 
	C347.769928,303.009674 347.169373,299.267395 346.719147,295.507141 
	C346.490082,293.593933 346.774261,291.924866 349.244873,291.468933 
	C351.513519,291.050232 352.641663,291.975311 353.340179,293.987732 
	C354.914154,298.522400 356.463684,303.048553 356.324677,307.950531 
	C356.255981,310.372833 355.927399,313.049438 353.303070,313.581024 
	C350.608063,314.126923 350.197479,311.196991 349.212097,309.404572 
	C348.899139,308.835327 348.780640,308.159180 348.440704,307.145660 
z"/>
<path fill="#000000" opacity="1.000000" stroke="none" 
	d="
M299.205688,570.791870 
	C290.564148,564.251404 289.277740,562.528137 289.063507,557.367737 
	C294.384735,557.135986 306.485992,566.794556 308.865936,573.318970 
	C304.824860,576.229492 302.255524,573.178223 299.205688,570.791870 
z"/>
<path fill="#000000" opacity="1.000000" stroke="none" 
	d="
M203.315918,534.585815 
	C200.505676,532.071594 196.267868,535.029358 194.083328,531.512207 
	C199.525101,527.555786 224.914871,536.833984 226.942703,543.381592 
	C224.816406,544.073303 212.524292,539.565979 203.315918,534.585815 
z"/>
<path fill="#000000" opacity="1.000000" stroke="none" 
	d="
M249.887512,308.229797 
	C248.619186,306.344727 249.099411,304.793793 250.584167,304.127930 
	C255.661255,301.850983 259.558868,297.848785 264.294312,295.103638 
	C265.294861,294.523590 266.432068,294.254272 267.568512,294.717804 
	C268.065979,302.828491 260.439819,308.799957 249.887512,308.229797 
z"/>
<path fill="#000000" opacity="1.000000" stroke="none" 
	d="
M324.189941,273.427002 
	C322.663666,271.531433 322.419586,269.964294 323.936340,268.282379 
	C325.920227,266.082520 334.272644,264.138733 337.001526,265.330536 
	C338.304840,265.899750 339.207153,266.828674 339.338745,268.271729 
	C339.490723,269.938721 338.631958,271.346893 337.221497,271.889130 
	C333.127472,273.463135 328.938995,274.822235 324.189941,273.427002 
z"/>
<path fill="#000000" opacity="1.000000" stroke="none" 
	d="
M393.553833,405.605225 
	C391.821899,408.380280 389.970001,408.967041 389.882843,405.436340 
	C389.736420,399.506561 390.981506,393.731598 394.015076,388.161774 
	C398.629150,394.151428 398.362610,400.688507 393.553833,405.605225 
z"/>
<path fill="#000000" opacity="1.000000" stroke="none" 
	d="
M447.609039,582.867310 
	C445.429291,582.177307 443.394836,581.693481 444.026215,579.202942 
	C444.519318,577.257812 446.427338,577.713806 447.793457,577.755737 
	C453.272156,577.923462 458.876129,576.938965 465.620087,579.159546 
	C459.506470,583.803650 453.754517,583.335754 447.609039,582.867310 
z"/>
<path fill="#000000" opacity="1.000000" stroke="none" 
	d="
M276.300659,534.374207 
	C278.999359,535.900513 281.830658,536.766479 282.484131,539.970825 
	C276.789307,542.551880 267.301727,538.843689 265.039337,533.065491 
	C268.897675,531.865906 272.443146,532.800903 276.300659,534.374207 
z"/>
<path fill="#000000" opacity="1.000000" stroke="none" 
	d="
M275.744446,122.198395 
	C276.842743,118.710907 279.307007,116.660469 281.414886,114.359558 
	C282.437103,113.243721 283.842285,113.274010 285.093018,113.904266 
	C286.624237,114.675873 286.349884,116.114296 285.921753,117.382019 
	C284.826965,120.623573 282.916107,123.269157 279.861481,124.948685 
	C277.238983,126.390610 275.760498,125.707771 275.744446,122.198395 
z"/>
<path fill="#000000" opacity="1.000000" stroke="none" 
	d="
M246.770844,220.528412 
	C254.331741,219.503998 261.620483,218.415665 269.262115,220.469971 
	C264.047943,224.393097 250.096786,224.361420 246.770844,220.528412 
z"/>
<path fill="#000000" opacity="1.000000" stroke="none" 
	d="
M230.207336,231.295227 
	C226.418121,232.865753 223.330505,235.189957 219.221680,235.983490 
	C222.759155,229.236465 233.408035,223.947769 237.989960,226.496841 
	C236.232178,229.257751 232.965057,229.548218 230.207336,231.295227 
z"/>
<path fill="#000000" opacity="1.000000" stroke="none" 
	d="
M299.263306,290.279114 
	C300.620514,289.684570 301.539459,288.828979 303.543396,289.326874 
	C301.503906,294.625000 298.756683,299.260376 295.008514,304.011597 
	C292.999786,297.998932 294.211182,294.370392 299.263306,290.279114 
z"/>
<path fill="#000000" opacity="1.000000" stroke="none" 
	d="
M177.233978,375.364624 
	C176.686035,372.554504 178.034439,371.651520 180.189240,371.621338 
	C182.885559,371.583618 185.701401,369.656342 188.249298,371.965363 
	C189.070480,372.709534 188.974075,373.679169 188.304199,374.639252 
	C186.291168,377.524231 180.479736,378.128387 177.233978,375.364624 
z"/>
<path fill="#000000" opacity="1.000000" stroke="none" 
	d="
M597.993286,100.807938 
	C595.070312,95.755867 595.065186,95.660278 598.137512,91.008362 
	C598.231323,97.479355 604.753357,98.522736 606.056702,103.848167 
	C601.994385,106.853683 600.281006,103.443672 597.993286,100.807938 
z"/>
<path fill="#000000" opacity="1.000000" stroke="none" 
	d="
M664.086670,285.458130 
	C663.723206,287.444611 663.588989,289.147461 661.028687,289.748230 
	C661.028687,283.402557 661.028687,277.349457 661.028687,271.099457 
	C664.788696,272.562531 664.788696,272.562531 664.086670,285.458130 
z"/>
<path fill="#000000" opacity="1.000000" stroke="none" 
	d="
M105.618553,186.408081 
	C109.002762,188.012375 106.752655,188.728287 105.386017,189.506805 
	C101.662552,191.627899 93.457207,192.213654 87.940544,190.326126 
	C94.161789,188.081192 99.690781,187.165543 105.618553,186.408081 
z"/>
<path fill="#000000" opacity="1.000000" stroke="none" 
	d="
M315.801605,572.072205 
	C316.468689,572.312378 316.780273,572.425964 317.078613,572.567383 
	C319.582092,573.754700 322.646545,574.494873 321.930206,578.356201 
	C321.572083,580.286560 319.975769,580.708618 318.515076,580.356018 
	C315.305267,579.581116 313.735168,576.876038 312.764069,574.080933 
	C312.012085,571.916443 313.764099,571.706665 315.801605,572.072205 
z"/>
<path fill="#000000" opacity="1.000000" stroke="none" 
	d="
M307.153442,304.553772 
	C307.956604,303.237793 308.521820,302.202698 309.289520,301.349823 
	C310.198761,300.339722 311.302521,299.508789 312.785950,300.345978 
	C314.441040,301.280029 314.474945,302.754272 313.819000,304.237213 
	C312.684113,306.802948 311.573700,309.459137 308.439545,310.296326 
	C306.180115,308.895966 306.731232,306.869080 307.153442,304.553772 
z"/>
<path fill="#000000" opacity="1.000000" stroke="none" 
	d="
M234.881073,304.165894 
	C233.828613,304.715088 233.011276,305.326904 232.309891,305.214630 
	C229.736572,304.802521 226.352234,304.536682 226.357376,301.265442 
	C226.361618,298.575500 229.390976,298.765594 231.531952,298.742126 
	C235.177032,298.702179 236.199554,300.595001 234.881073,304.165894 
z"/>
<path fill="#000000" opacity="1.000000" stroke="none" 
	d="
M319.156860,448.022400 
	C316.063751,452.167389 311.582916,451.683075 306.745850,453.050476 
	C309.213501,448.691559 314.817200,446.629822 319.156860,448.022400 
z"/>
<path fill="#000000" opacity="1.000000" stroke="none" 
	d="
M488.007751,204.989120 
	C487.200226,205.203995 486.160278,205.477982 485.840576,204.514725 
	C484.045624,199.105957 484.094177,193.709351 486.919006,188.327972 
	C487.259125,193.610229 487.599243,198.892502 487.963135,204.594116 
	C487.986938,205.013474 488.001221,204.998001 488.007751,204.989120 
z"/>
<path fill="#000000" opacity="1.000000" stroke="none" 
	d="
M279.679504,343.510010 
	C282.057648,342.114532 283.842102,340.278961 286.678314,340.064209 
	C287.733704,341.979370 287.395782,343.458008 285.462158,344.454590 
	C283.304932,345.566498 281.065704,347.231720 278.593842,345.940948 
	C277.405365,345.320312 278.730743,344.348022 279.679504,343.510010 
z"/>
<path fill="#000000" opacity="1.000000" stroke="none" 
	d="
M332.847107,231.607391 
	C335.188538,229.201035 335.415894,231.761612 335.757690,232.734970 
	C336.622528,235.197556 336.750275,237.780075 335.554260,240.854614 
	C332.613037,238.147995 332.595062,235.109787 332.847107,231.607391 
z"/>
<path fill="#000000" opacity="1.000000" stroke="none" 
	d="
M539.876953,193.158630 
	C537.221924,190.454605 534.551819,187.655823 535.920959,182.529297 
	C538.956848,185.614014 539.932434,188.641617 540.380493,192.306580 
	C540.405212,192.685532 540.052063,192.999786 539.876953,193.158630 
z"/>
<path fill="#000000" opacity="1.000000" stroke="none" 
	d="
M662.384644,263.349457 
	C662.242004,264.921692 663.330261,266.356201 661.336487,267.481232 
	C659.346802,264.242065 659.180054,261.092529 660.878662,257.144562 
	C662.948608,259.132385 662.103394,261.192078 662.384644,263.349457 
z"/>
<path fill="#000000" opacity="1.000000" stroke="none" 
	d="
M532.871216,371.900513 
	C536.080322,361.815826 545.705933,358.247284 554.706726,363.776917 
	C556.933289,365.144836 559.640747,363.929504 562.056763,365.598907 
	C560.480713,368.618164 559.129333,371.599854 557.421021,374.360626 
	C555.940491,376.753265 553.400696,377.731079 550.686951,378.160065 
	C548.534729,378.500275 547.216248,377.151794 546.214966,375.606079 
	C544.800964,373.423096 546.453735,371.942474 548.299316,369.954956 
	C543.253906,371.526733 538.791687,372.702301 533.689941,372.299042 
	C533.266479,372.321930 533.005066,372.038971 532.871216,371.900513 
z"/>
<path fill="#000000" opacity="1.000000" stroke="none" 
	d="
M706.349854,379.578979 
	C705.087952,380.280334 704.062805,380.742065 702.423340,381.480499 
	C707.211731,384.182373 715.758545,381.054169 715.216248,390.555145 
	C709.018982,391.824158 703.216980,391.826263 698.420654,387.155273 
	C696.521057,385.305298 693.697266,383.453461 696.322815,380.122833 
	C696.845886,379.459290 696.517639,378.922424 695.979431,378.441925 
	C694.876587,377.457306 693.306824,376.479919 694.479370,374.774963 
	C695.709290,372.986694 697.732422,372.595123 699.825134,372.743805 
	C704.425476,373.070709 707.088806,375.676941 706.349854,379.578979 
z"/>
<path fill="#000000" opacity="1.000000" stroke="none" 
	d="
M594.802246,463.561646 
	C592.873596,464.541077 591.274719,464.892456 590.508789,462.704071 
	C589.915771,461.009613 590.269775,459.368652 591.902161,458.425812 
	C593.280884,457.629486 594.949036,457.774170 596.046387,458.841766 
	C597.895325,460.640472 596.324280,462.037537 594.802246,463.561646 
z"/>
<path fill="#000000" opacity="1.000000" stroke="none" 
	d="
M617.360352,461.926575 
	C618.851074,464.428711 617.710083,465.873505 615.863342,467.011078 
	C615.159790,467.444427 614.328369,467.728577 613.572693,467.149963 
	C612.383606,466.239441 612.257812,464.725494 612.451782,463.562439 
	C612.920349,460.753052 615.083313,461.281738 617.360352,461.926575 
z"/>
<path fill="#000000" opacity="1.000000" stroke="none" 
	d="
M606.460388,448.880981 
	C608.475952,449.025970 610.991699,447.900055 611.186584,450.638184 
	C611.343079,452.837311 609.116638,453.487427 607.327576,453.802582 
	C605.960938,454.043335 604.641846,453.315674 604.030212,452.020599 
	C603.080566,450.009979 604.574097,449.411987 606.460388,448.880981 
z"/>
<path fill="#000000" opacity="1.000000" stroke="none" 
	d="
M729.196655,397.025940 
	C728.054016,393.239410 730.648438,394.252441 732.273132,394.427490 
	C733.991516,394.612640 734.945251,396.034637 734.590759,397.602631 
	C734.075928,399.879150 732.483398,399.001648 731.144470,398.285675 
	C730.568604,397.977814 730.030396,397.599609 729.196655,397.025940 
z"/>
<path fill="#000000" opacity="1.000000" stroke="none" 
	d="
M735.468201,409.939697 
	C738.115906,409.076385 739.712769,409.997406 739.818604,412.429260 
	C739.873962,413.702209 738.448242,414.255768 737.222717,414.173370 
	C734.460083,413.987579 734.687439,412.151825 735.468201,409.939697 
z"/>
<path fill="#000000" opacity="1.000000" stroke="none" 
	d="
M468.979919,457.985901 
	C470.173523,459.723114 471.410156,461.455505 472.585876,463.228271 
	C473.857208,465.145111 475.322479,467.079498 472.911469,469.600830 
	C469.038269,468.227997 467.166840,465.076996 465.931824,461.506714 
	C465.299347,459.678192 466.083405,458.272797 468.634186,458.033997 
	C469.026733,458.026733 468.996094,457.998901 468.979919,457.985901 
z"/>
<path fill="#000000" opacity="1.000000" stroke="none" 
	d="
M499.277039,490.670471 
	C499.547333,486.248535 502.348633,485.987610 505.827118,486.128204 
	C506.155487,488.828766 506.883423,491.262268 509.331848,493.196808 
	C504.889252,495.446533 502.418396,492.188171 499.277039,490.670471 
z"/>
<path fill="#000000" opacity="1.000000" stroke="none" 
	d="
M405.397430,443.677887 
	C405.461731,441.326172 406.933319,440.889008 408.471954,441.031738 
	C414.107208,441.554535 419.476135,451.350983 416.715912,457.532440 
	C412.152222,453.440308 407.844788,449.632019 405.397430,443.677887 
z"/>
</svg>