<?xml version="1.0" standalone="no"?>
<!DOCTYPE svg PUBLIC "-//W3C//DTD SVG 20010904//EN"
 "http://www.w3.org/TR/2001/REC-SVG-20010904/DTD/svg10.dtd">
<svg version="1.0" xmlns="http://www.w3.org/2000/svg"
 width="736.000000pt" height="1041.000000pt" viewBox="0 0 736.000000 1041.000000"
 preserveAspectRatio="xMidYMid meet">

<g transform="translate(0.000000,1041.000000) scale(0.100000,-0.100000)"
fill="#000000" stroke="none">
<path d="M3815 9941 c115 -10 184 -30 263 -78 163 -99 233 -178 492 -553 106
-153 211 -300 220 -305 10 -6 -93 160 -114 185 -15 17 -56 87 -56 96 0 4 8 3
17 0 9 -4 -4 12 -30 34 -27 24 -76 89 -118 156 -151 244 -230 328 -374 399
-95 47 -172 66 -290 70 l-100 4 90 -8z"/>
<path d="M3575 9920 c-236 -63 -479 -266 -599 -499 -84 -165 -111 -281 -110
-476 0 -119 5 -168 22 -238 25 -101 73 -220 103 -257 l20 -25 -15 32 c-41 83
-78 210 -97 326 -20 127 2 392 36 425 11 11 24 -22 31 -78 15 -130 125 -285
258 -362 39 -23 73 -43 75 -44 6 -5 -20 -63 -59 -132 -35 -63 -35 -63 -72 -57
-21 4 -43 3 -50 -2 -9 -5 -2 -10 21 -13 19 -3 36 -10 38 -16 6 -18 -94 -144
-187 -235 -99 -98 -208 -176 -315 -224 -75 -34 -115 -72 -115 -109 0 -53 81
-132 205 -201 l63 -36 6 -92 c4 -51 9 -109 12 -129 6 -38 6 -38 -30 -38 -70 0
-83 -66 -42 -210 13 -47 27 -105 30 -130 7 -51 34 -143 35 -120 1 17 -24 137
-58 277 -11 45 -18 90 -16 100 2 10 4 26 4 36 1 23 46 40 70 27 10 -5 21 -26
25 -47 3 -21 9 -49 13 -63 6 -24 6 -24 -31 8 -37 33 -56 40 -56 22 0 -5 6 -10
13 -10 7 0 28 -16 47 -35 28 -29 35 -46 44 -107 11 -69 12 -59 19 177 7 250
13 328 27 320 3 -2 6 14 6 36 -1 49 20 68 144 130 120 60 191 72 415 72 255 1
450 -25 680 -89 187 -53 417 -174 539 -285 l62 -57 17 -113 c10 -63 21 -130
24 -149 l7 -35 7 47 c4 26 14 62 23 79 20 41 20 65 -3 114 -16 36 -84 104
-146 145 -13 8 -57 39 -99 68 -140 97 -345 186 -541 236 -191 47 -340 66 -536
66 -167 0 -218 -4 -369 -29 -227 -38 -350 -82 -350 -127 0 -7 16 -26 35 -42
25 -20 34 -34 29 -45 -8 -22 -16 -21 -45 2 -13 10 -48 30 -76 45 -55 27 -138
119 -149 164 -8 31 17 57 90 93 256 127 440 336 626 711 40 78 75 150 80 158
5 10 20 14 46 12 34 -2 48 -11 104 -71 126 -132 327 -306 450 -388 147 -98
215 -132 316 -158 82 -21 396 -75 439 -75 8 0 14 -33 18 -102 10 -186 75 -416
172 -607 25 -50 45 -103 45 -118 0 -40 -31 -94 -69 -120 -17 -11 -26 -23 -20
-25 9 -3 8 -27 -4 -95 -10 -50 -17 -101 -16 -114 1 -35 26 74 34 149 4 38 13
68 22 75 107 84 109 99 38 245 -47 96 -85 184 -85 197 0 2 60 3 133 4 165 0
266 18 117 20 -93 1 -252 29 -270 47 -28 28 -80 281 -80 391 l0 55 98 -5 97
-5 -85 9 c-190 20 -262 32 -415 69 -223 54 -291 80 -419 156 -61 37 -113 70
-116 74 -3 4 -19 16 -36 26 -66 41 -175 135 -290 250 -67 67 -131 127 -143
133 -26 15 -153 -1 -203 -24 -18 -8 -24 -13 -13 -9 11 3 42 8 68 11 l48 6 -10
-26 c-10 -27 -61 -129 -67 -136 -9 -10 -120 77 -173 135 -105 115 -154 237
-155 389 -1 85 1 95 34 160 19 38 55 96 80 130 77 102 210 228 226 212 3 -3
-11 -41 -32 -84 -35 -73 -38 -85 -42 -188 -4 -116 11 -205 60 -337 25 -69 37
-70 14 -1 -46 141 -62 373 -32 463 57 170 159 260 349 310 54 14 63 19 37 19
-19 -1 -66 -9 -105 -19z"/>
<path d="M4780 9216 c0 -8 257 -99 414 -146 219 -66 325 -106 411 -157 188
-111 261 -250 249 -473 -11 -202 -48 -315 -147 -448 -75 -103 -112 -142 -223
-231 -103 -83 -211 -146 -313 -182 -96 -35 -79 -37 23 -4 307 100 582 380 668
681 33 115 31 260 -5 370 -55 167 -165 289 -342 377 -93 47 -189 77 -435 136
-113 28 -225 57 -249 65 -46 17 -51 18 -51 12z"/>
<path d="M1325 8770 c3 -5 8 -10 11 -10 2 0 4 5 4 10 0 6 -5 10 -11 10 -5 0
-7 -4 -4 -10z"/>
<path d="M1375 8719 l-20 -8 20 -1 c18 -1 17 -2 -4 -11 -37 -15 -18 -22 26
-10 54 15 76 14 69 -4 -4 -11 2 -15 22 -15 30 0 92 -34 92 -51 0 -6 -8 -8 -20
-4 -11 3 -20 2 -20 -3 0 -5 -29 -13 -64 -17 -36 -3 -70 -13 -76 -20 -10 -12
-5 -13 26 -8 26 4 35 3 30 -5 -5 -8 -2 -10 8 -6 9 3 16 11 16 16 0 7 22 8 58
5 31 -4 63 -6 71 -7 8 0 11 -7 8 -20 -3 -11 -1 -18 4 -14 5 3 9 -4 9 -15 0
-17 -4 -19 -30 -11 -23 7 -30 5 -30 -5 0 -7 -6 -15 -12 -18 -7 -3 6 -2 29 0
52 7 85 -3 63 -18 -13 -8 -13 -11 3 -20 24 -14 21 -38 -9 -83 l-26 -38 21 -29
c27 -37 28 -99 2 -123 -12 -11 -31 -16 -52 -14 -18 2 -34 -2 -36 -9 -6 -16 34
-20 83 -9 35 8 44 16 60 50 16 35 23 41 49 40 35 -1 45 10 45 51 0 49 11 75
31 75 10 0 23 -9 29 -20 13 -24 45 -26 54 -4 9 23 7 36 -4 29 -5 -3 -21 2 -35
11 -33 22 -69 12 -87 -26 -14 -28 -16 -29 -36 -14 -21 15 -32 42 -12 29 5 -3
7 0 4 9 -3 9 5 26 19 40 14 14 22 28 18 32 -3 4 2 4 12 1 10 -4 25 -7 33 -7 8
0 23 -9 34 -20 20 -20 20 -20 17 2 -3 15 -15 25 -42 32 l-38 11 27 13 c15 6
41 13 59 13 l32 1 -30 7 -30 7 34 7 c18 4 49 7 67 7 19 0 34 5 34 11 0 16 -94
3 -146 -20 -44 -20 -78 -59 -113 -128 -12 -24 -26 -43 -31 -43 -5 0 -7 26 -6
57 5 99 -71 250 -144 288 -44 23 -142 43 -165 34z"/>
<path d="M1353 8653 c-44 -4 -59 -25 -26 -37 19 -8 133 23 133 36 0 8 -25 8
-107 1z"/>
<path d="M1440 8520 c-39 -20 -48 -29 -33 -30 12 0 25 5 28 10 13 20 24 9 19
-18 -7 -33 25 -68 52 -58 12 4 15 2 11 -9 -4 -8 3 -21 14 -29 18 -12 19 -17 9
-38 -7 -12 -14 -24 -15 -26 -2 -2 -19 8 -39 21 -44 30 -147 50 -198 38 -78
-18 -131 -66 -181 -167 -30 -59 -46 -74 -90 -84 -31 -8 -31 -8 -4 -9 15 -1 41
6 58 14 l30 16 -7 -28 c-4 -15 -11 -32 -15 -37 -12 -13 -12 -29 0 -22 11 7 37
88 46 143 7 44 25 69 25 36 1 -12 5 -8 14 12 7 17 12 32 11 35 -2 3 4 11 12
19 13 11 14 4 7 -58 -4 -48 -3 -71 4 -71 6 0 13 -21 15 -47 2 -27 2 -7 0 43
-5 92 12 164 36 164 15 0 14 -13 -4 -36 -8 -10 -14 -35 -13 -54 1 -33 1 -33 5
-5 3 16 13 41 22 55 10 14 21 33 24 43 11 29 24 19 21 -15 l-3 -33 11 33 c13
37 28 42 29 10 l0 -23 11 23 c12 24 31 31 22 7 -4 -8 -1 -15 5 -15 6 0 11 6
11 13 0 8 4 7 10 -3 8 -12 12 -12 18 -2 9 13 26 10 70 -11 16 -8 22 -19 23
-46 0 -28 2 -32 8 -16 8 20 8 20 15 -1 3 -12 16 -30 28 -40 l22 -19 -21 30
c-11 17 -23 40 -27 52 -6 18 -4 21 16 15 20 -5 21 -3 10 10 -10 13 -9 18 4 28
8 8 22 27 30 44 l16 31 -27 -30 -26 -30 25 51 c14 28 23 54 20 57 -3 2 -23 1
-46 -4 -46 -11 -74 -5 -82 17 -8 20 11 54 29 54 7 0 17 5 20 10 12 19 -30 9
-85 -20z"/>
<path d="M1450 8315 c0 -8 0 -18 1 -21 1 -12 -25 -24 -56 -25 -20 -1 -24 -3
-11 -6 15 -4 16 -7 5 -15 -10 -6 -2 -7 25 -3 l39 6 -6 -31 c-4 -19 -3 -29 3
-25 6 3 10 -4 11 -17 0 -13 7 6 15 41 7 36 11 75 8 88 -7 25 -34 32 -34 8z"/>
<path d="M1266 8228 c4 -18 8 -59 8 -91 1 -46 4 -57 16 -55 24 5 23 52 -1 118
-23 65 -37 80 -23 28z"/>
<path d="M1357 8180 c10 -11 21 -20 25 -20 15 0 8 28 -8 34 -28 11 -34 6 -17
-14z"/>
<path d="M1152 8139 c-20 -51 -22 -68 -14 -73 6 -3 15 15 21 40 13 50 7 72 -7
33z"/>
<path d="M1451 8134 c0 -11 3 -14 6 -6 3 7 2 16 -1 19 -3 4 -6 -2 -5 -13z"/>
<path d="M1644 8101 c3 -5 -3 -7 -15 -4 -18 5 -20 2 -18 -24 2 -17 -3 -38 -10
-47 -11 -14 -11 -16 3 -16 13 0 16 -13 16 -85 0 -70 -3 -85 -16 -85 -8 0 -12
-5 -9 -11 4 -6 13 -8 21 -5 21 8 18 -44 -3 -60 -17 -12 -17 -13 3 -14 19 0 21
-6 23 -110 2 -73 -1 -110 -8 -110 -6 0 -11 -4 -11 -10 0 -6 5 -9 12 -7 16 3
20 -113 5 -132 -10 -12 -7 -13 18 -8 23 6 26 5 13 -3 -12 -7 -17 -22 -16 -46
l1 -35 64 2 c60 2 72 7 56 23 -4 4 -7 26 -8 50 l0 43 25 -15 25 -16 -20 25
c-27 32 -49 73 -36 65 6 -4 13 5 17 21 3 15 7 34 10 41 2 6 -2 12 -9 12 -7 0
-4 7 6 14 12 9 14 16 7 21 -5 3 -7 11 -4 17 6 10 16 160 17 275 1 49 4 60 14
51 19 -16 17 7 -3 26 -11 12 -14 28 -10 60 6 55 -1 83 -22 91 -29 11 -144 16
-138 6z"/>
<path d="M4905 7879 c22 -12 78 -35 125 -51 111 -39 266 -49 355 -24 49 15
165 71 165 81 0 2 -28 -7 -62 -18 -55 -19 -86 -21 -248 -21 -184 0 -219 5
-355 49 -11 3 -2 -4 20 -16z"/>
<path d="M1605 7720 c3 -5 8 -10 11 -10 2 0 4 5 4 10 0 6 -5 10 -11 10 -5 0
-7 -4 -4 -10z"/>
<path d="M5068 7543 c7 -3 16 -2 19 1 4 3 -2 6 -13 5 -11 0 -14 -3 -6 -6z"/>
<path d="M4410 7529 c-41 -5 -100 -11 -131 -13 -119 -10 -201 -42 -243 -95
-21 -28 -26 -43 -23 -68 3 -17 3 -34 -1 -37 -8 -8 -12 -30 -19 -94 -5 -45 -3
-52 11 -46 10 4 15 14 12 30 -3 13 0 24 6 24 6 0 6 6 -2 15 -9 11 -9 15 -1 15
7 0 9 5 6 10 -3 6 1 13 9 16 9 3 16 13 16 21 0 10 6 12 23 7 32 -9 32 -11 11
-36 l-19 -22 25 17 c93 65 235 91 347 63 61 -15 175 -77 155 -84 -5 -1 -39 12
-78 30 -57 26 -85 32 -159 36 -89 4 -92 4 -203 -43 -61 -26 -112 -49 -112 -51
0 -2 26 -3 58 -3 31 1 44 4 28 6 -27 4 -26 6 24 29 61 28 64 29 57 10 -3 -7 1
-23 9 -35 13 -18 25 -21 77 -21 72 0 111 16 115 48 4 25 17 27 51 8 26 -14 20
-22 -27 -36 -26 -8 -26 -9 6 -7 19 1 35 4 38 8 2 3 35 4 74 1 l71 -5 -14 34
c-25 62 -134 99 -291 99 -73 -1 -124 -12 -197 -44 -11 -5 -19 -1 -23 9 -4 10
-2 14 5 9 6 -4 14 -2 18 3 7 11 92 47 136 58 57 14 80 17 168 16 76 -1 96 -5
150 -31 34 -16 82 -46 107 -66 l45 -36 3 27 c3 20 -10 47 -44 96 -26 38 -51
69 -55 69 -5 0 -6 6 -3 14 3 8 -6 17 -23 24 -52 19 -96 32 -107 31 -6 -1 -45
-6 -86 -10z m306 -217 c-4 -3 -14 2 -24 12 -16 18 -16 18 6 6 13 -6 21 -14 18
-18z m-403 -37 c1 -5 -13 -11 -30 -13 -31 -3 -42 6 -26 22 10 10 53 3 56 -9z"/>
<path d="M5008 7533 c7 -3 16 -2 19 1 4 3 -2 6 -13 5 -11 0 -14 -3 -6 -6z"/>
<path d="M3160 7492 c-65 -25 -75 -32 -59 -43 11 -7 10 -9 -3 -9 -10 0 -18 -6
-18 -12 0 -7 -11 -26 -25 -43 -31 -37 -55 -90 -55 -121 0 -29 11 -31 33 -6 19
20 23 37 7 27 -5 -3 -10 -1 -10 5 0 7 8 9 19 5 10 -3 23 1 30 9 7 8 42 29 79
47 55 27 80 33 142 35 94 3 267 -22 300 -44 14 -9 28 -15 33 -14 4 1 7 -3 7
-9 0 -6 6 -9 14 -6 19 7 68 -74 71 -117 1 -17 6 -30 11 -28 13 4 7 102 -8 119
-6 8 -11 32 -10 53 2 28 -4 45 -24 69 -14 17 -30 31 -36 31 -5 0 -21 8 -34 19
-23 18 -82 32 -154 36 -239 15 -265 15 -310 -3z"/>
<path d="M3287 7325 c-103 -26 -156 -64 -157 -113 0 -17 4 -22 18 -19 43 13
110 16 144 8 22 -5 36 -5 32 0 -3 5 -13 9 -22 9 -9 0 -23 4 -31 9 -11 7 -7 13
17 25 39 20 42 20 42 -1 1 -41 15 -47 102 -45 64 2 86 7 96 20 7 9 10 22 8 29
-7 18 15 16 64 -6 39 -17 41 -20 19 -24 -13 -2 1 -5 31 -5 l55 -1 -40 19
c-198 92 -309 94 -475 8 l-55 -28 44 40 c61 56 129 75 255 74 92 -2 103 -4
168 -37 75 -39 74 -23 -1 21 -41 24 -57 27 -151 29 -66 2 -126 -3 -163 -12z
m194 -70 c0 -5 -7 -12 -16 -13 -23 -5 -47 6 -40 19 8 13 56 8 56 -6z"/>
<path d="M4860 7138 c0 -42 -6 -101 -12 -130 l-13 -53 -6 50 -6 50 -3 -40 c-2
-22 -4 -51 -5 -65 -1 -14 -4 -83 -5 -155 -5 -257 -39 -390 -138 -544 l-36 -56
-7 30 c-7 32 -13 16 -18 -50 -1 -17 -91 -129 -91 -113 0 15 28 57 34 51 4 -4
9 3 13 15 3 12 9 22 14 22 14 0 11 58 -3 63 -10 3 -10 7 -2 18 13 17 36 84 40
117 2 13 7 29 12 35 5 7 6 21 3 31 -6 15 -12 5 -29 -41 -12 -33 -22 -67 -22
-76 0 -25 -11 -47 -21 -41 -5 3 -9 -2 -9 -10 0 -8 -6 -19 -14 -23 -9 -5 -16
-31 -19 -69 -3 -34 -12 -73 -21 -86 -9 -14 -13 -27 -10 -31 3 -3 -13 -26 -37
-51 -23 -26 -45 -44 -47 -41 -3 3 3 14 13 25 10 11 20 37 22 58 l3 37 -20 -24
c-13 -15 -20 -18 -21 -10 -1 8 -4 3 -8 -10 -4 -14 -13 -27 -20 -29 -10 -3 -12
0 -8 11 4 11 2 14 -8 11 -15 -6 -33 41 -21 53 3 4 6 -1 6 -10 0 -28 17 -19 29
14 9 27 8 34 -7 45 -15 11 -19 9 -30 -17 -7 -16 -26 -48 -42 -71 -19 -26 -28
-48 -24 -60 3 -12 0 -18 -9 -18 -16 0 -27 -21 -27 -51 0 -21 -16 -26 -22 -7
-2 6 -16 -9 -31 -34 -14 -25 -39 -54 -54 -64 -37 -25 -153 -65 -178 -62 -11 1
-26 -1 -32 -5 -7 -5 -19 -5 -25 0 -7 4 -26 9 -43 9 -42 2 -177 44 -197 62 -10
8 -18 21 -18 29 0 8 -4 12 -9 8 -5 -3 -12 4 -16 15 -3 11 -12 20 -20 20 -7 0
-18 12 -24 28 -19 44 -43 87 -53 90 -4 2 -8 10 -8 18 0 8 -4 14 -10 14 -5 0
-10 -10 -10 -22 -1 -20 -2 -21 -13 -7 -10 14 -14 14 -25 3 -6 -7 -12 -18 -12
-25 0 -17 -28 8 -33 29 -3 9 -3 1 -1 -18 3 -33 2 -34 -12 -15 -8 11 -12 25 -9
33 2 7 1 10 -4 7 -5 -3 -12 3 -14 12 -3 10 -4 2 -4 -17 1 -21 11 -44 25 -58
12 -13 22 -25 22 -28 0 -11 -38 18 -80 62 -25 26 -39 44 -33 40 14 -8 10 9
-14 53 -8 17 -9 29 -2 37 7 8 6 14 -1 19 -6 4 -10 14 -9 23 3 36 -2 52 -16 52
-10 0 -15 10 -16 28 0 23 -2 24 -8 8 -7 -18 -8 -18 -14 -2 -4 10 -5 30 -2 44
4 23 4 24 -4 7 -8 -16 -10 -16 -10 -4 -1 24 -42 112 -48 105 -8 -7 14 -82 35
-121 10 -18 15 -51 15 -83 -2 -55 19 -97 41 -85 6 3 8 2 3 -2 -4 -5 0 -19 9
-33 16 -24 16 -24 -3 -11 -29 20 -74 76 -78 96 -2 10 -4 29 -5 43 0 22 -2 23
-11 7 -5 -9 -7 -23 -3 -30 11 -19 -9 3 -38 43 -46 64 -96 164 -121 245 -26 82
-42 207 -53 423 -4 67 -11 122 -16 122 -4 0 -5 -23 -2 -51 4 -33 3 -49 -3 -46
-17 10 -45 115 -54 196 l-8 76 3 -95 c3 -82 7 -103 33 -155 24 -48 31 -77 36
-147 2 -49 1 -88 -4 -88 -22 0 -58 25 -74 52 -14 24 -16 43 -12 87 5 44 4 51
-4 31 -6 -14 -11 -47 -12 -74 -1 -44 3 -52 36 -82 20 -19 45 -34 56 -34 16 0
20 -10 26 -66 26 -247 128 -408 448 -713 59 -56 94 -96 88 -101 -6 -3 -78 -19
-159 -34 -81 -15 -160 -29 -175 -32 -21 -4 -38 -22 -70 -72 -79 -128 -436
-660 -446 -666 -5 -4 -12 -2 -16 4 -3 5 -30 22 -60 36 -55 27 -157 134 -284
297 -54 68 -65 77 -74 55 -4 -10 -6 -10 -6 0 -2 34 62 169 94 199 29 26 35 39
35 72 0 23 -4 41 -10 41 -5 0 -10 -16 -10 -35 0 -26 -8 -44 -30 -68 -17 -17
-53 -71 -80 -119 -56 -95 -62 -98 -117 -50 -40 36 -53 62 -53 112 0 53 23 86
80 115 42 21 59 44 60 78 0 20 -18 3 -23 -21 -4 -22 -17 -33 -56 -52 -51 -23
-81 -55 -81 -85 0 -8 -3 -15 -6 -15 -4 0 -46 36 -93 80 l-88 79 -10 68 c-6 37
-9 70 -7 72 2 2 38 -3 81 -12 42 -8 82 -13 89 -10 30 11 4 40 -71 77 -74 37
-80 39 -119 27 -82 -24 -82 -24 -48 4 31 25 32 28 15 39 -28 19 -102 40 -110
32 -4 -4 -2 -16 5 -26 7 -11 12 -26 12 -35 0 -8 26 -28 59 -44 60 -31 71 -46
71 -103 0 -26 -2 -27 -26 -18 -15 6 -40 20 -55 31 -16 11 -39 19 -50 17 -53
-8 -111 -134 -79 -173 10 -12 8 -23 -10 -61 -19 -39 -21 -51 -12 -80 10 -34 9
-36 -29 -60 -21 -13 -39 -29 -39 -34 0 -29 62 -140 96 -172 60 -57 149 -83
188 -55 15 11 27 11 69 0 28 -7 61 -13 72 -13 12 0 34 -13 49 -29 l28 -29 -45
-93 c-57 -119 -83 -220 -67 -259 13 -32 31 -40 147 -69 102 -26 180 -60 243
-106 52 -38 70 -45 49 -18 -8 10 4 3 26 -15 22 -17 45 -32 52 -32 7 0 16 -6
20 -13 4 -8 21 -22 36 -32 l28 -18 -12 26 c-9 20 -9 30 -1 40 15 18 -14 57
-85 117 -30 25 -74 65 -99 89 l-45 43 56 50 c52 47 85 92 85 118 0 19 -15 10
-31 -19 -28 -49 -169 -133 -256 -153 -52 -12 -77 -35 -28 -26 14 3 25 1 25 -3
0 -9 -49 -14 -114 -11 -44 2 -86 25 -86 47 0 9 8 6 25 -10 27 -27 75 -34 75
-11 0 8 -4 18 -10 21 -5 3 -10 18 -10 32 0 35 81 113 143 139 55 22 52 15 97
233 17 80 28 152 25 160 -8 21 5 7 44 -48 17 -24 70 -86 117 -137 94 -101 101
-111 151 -193 37 -61 44 -62 13 -1 -11 22 -18 40 -14 40 14 0 53 -38 46 -45
-4 -5 1 -5 11 -2 11 4 16 3 12 -3 -6 -9 30 -80 41 -80 7 0 -9 35 -25 55 -16
20 -16 20 7 1 13 -11 33 -52 47 -95 20 -63 24 -70 24 -41 0 19 -8 60 -19 90
-10 30 -18 56 -17 57 1 1 24 -24 50 -55 46 -55 125 -223 142 -301 9 -41 -9
-34 -28 11 l-12 30 -35 -68 c-22 -43 -58 -92 -98 -131 -62 -61 -63 -61 -99
-51 -37 10 -71 32 -163 103 -140 110 -126 84 22 -38 117 -97 140 -110 190
-110 45 0 129 53 248 156 41 36 76 62 78 57 2 -5 -11 -62 -28 -127 -35 -131
-36 -198 -5 -311 l17 -59 -41 -96 c-23 -53 -41 -100 -41 -104 0 -4 16 -51 35
-103 19 -52 32 -96 30 -98 -2 -2 -41 4 -87 14 -151 31 -418 20 -621 -27 l-49
-11 36 -30 c51 -42 60 -63 45 -100 -21 -52 -71 -60 -191 -28 -90 23 -180 61
-263 109 -66 39 -80 40 -188 15 -59 -14 -72 -22 -102 -59 l-35 -43 19 -45 c12
-27 32 -52 50 -63 37 -22 39 -36 6 -58 -33 -22 -34 -21 -101 24 -33 22 -64 40
-71 40 -6 0 -19 7 -27 16 -11 10 -21 12 -32 6 -14 -8 -6 -13 35 -27 37 -12 55
-25 66 -46 40 -77 -58 -113 -242 -89 -58 7 -98 8 -109 2 -12 -6 13 -11 82 -17
161 -13 239 -11 268 8 31 21 42 57 25 89 l-12 23 25 -23 c41 -37 118 -51 212
-37 22 3 69 -1 105 -9 72 -16 269 -24 289 -12 10 6 66 11 179 15 7 1 12 5 10
10 -1 5 19 27 44 49 l45 40 42 -18 c39 -18 47 -18 113 -4 94 19 197 22 237 5
31 -13 35 -12 63 15 l30 29 -16 -38 c-18 -44 -9 -68 33 -91 19 -11 22 -15 10
-16 -10 0 -34 17 -54 37 -21 21 -39 33 -41 28 -21 -60 -98 -110 -208 -134 -29
-7 -56 -18 -59 -24 -3 -9 -7 -8 -14 1 -16 23 -46 9 -53 -23 -4 -17 -7 -24 -8
-17 -2 21 -17 13 -17 -9 0 -14 5 -19 18 -16 28 8 40 -16 25 -46 -10 -19 -17
-23 -24 -16 -15 15 -33 2 -33 -24 l0 -22 -18 23 c-18 24 -35 21 -25 -4 3 -8 0
-14 -6 -14 -20 0 -11 -27 12 -37 21 -10 29 -6 63 27 21 22 43 39 48 40 5 0 17
6 25 14 25 21 111 46 160 46 65 0 87 -8 101 -36 13 -24 30 -32 30 -15 0 17 97
105 153 138 31 19 57 38 57 43 0 4 -19 11 -42 15 -118 20 -48 30 184 28 74 -1
92 -5 120 -24 37 -26 48 -38 48 -56 0 -21 -16 -15 -61 23 -41 34 -47 36 -94
31 -35 -4 -43 -3 -27 3 26 11 30 22 5 14 -10 -3 -24 -8 -32 -10 -10 -3 -11 -8
-2 -18 9 -11 5 -19 -19 -40 -18 -14 -44 -29 -58 -32 -15 -4 -36 -12 -47 -18
-11 -7 -29 -16 -40 -19 -20 -7 -20 -7 -1 8 11 8 15 15 10 15 -14 0 -52 -29
-39 -30 6 0 -4 -9 -21 -19 -35 -21 -69 -71 -99 -145 -19 -47 -68 -97 -81 -83
-3 3 3 19 15 35 76 108 36 192 -84 177 -30 -4 -55 -11 -55 -15 0 -4 -17 -15
-37 -24 -54 -24 -129 -96 -137 -130 -16 -68 -75 -109 -180 -126 -31 -5 -63
-16 -72 -25 -17 -16 -59 -21 -68 -7 -3 5 -45 12 -93 15 -99 7 -149 21 -188 55
-23 20 -25 28 -20 65 8 51 -3 63 -89 103 -102 47 -186 24 -186 -50 0 -30 32
-94 53 -108 24 -15 -6 -22 -31 -7 -18 10 -35 36 -54 81 -23 59 -100 178 -114
178 -3 0 -2 -5 2 -11 4 -7 0 -9 -14 -5 -30 10 -35 -18 -8 -43 18 -17 25 -37
29 -81 15 -172 244 -378 482 -436 152 -37 453 -15 673 49 80 24 98 23 66 -4
-30 -25 -104 -137 -104 -157 0 -12 19 -36 50 -60 93 -74 272 -300 369 -465 29
-48 82 -150 119 -226 l68 -138 -41 -29 c-22 -16 -56 -43 -75 -61 l-36 -31 -59
28 c-73 35 -159 52 -207 41 -45 -11 -98 -47 -98 -68 0 -18 66 -110 119 -166
39 -41 75 -55 263 -101 67 -16 118 -24 135 -20 36 9 160 70 168 84 4 7 13 6
28 -1 12 -7 19 -8 15 -4 -4 5 -2 15 5 24 11 14 10 15 -8 2 -18 -13 -18 -13 1
8 18 19 25 21 43 12 19 -11 96 -4 177 14 40 9 102 183 83 233 -5 14 -8 26 -7
27 2 1 30 13 63 27 33 14 60 30 60 37 0 6 -41 64 -91 129 -51 64 -158 202
-239 306 -150 192 -260 359 -252 381 9 22 257 104 362 119 84 13 218 29 249
31 4 0 30 -55 56 -122 59 -148 199 -444 254 -536 23 -38 61 -93 86 -122 51
-61 124 -201 338 -650 l148 -309 80 -26 79 -25 18 -75 c11 -47 25 -81 38 -93
12 -9 17 -17 11 -17 -6 0 -22 14 -36 31 -14 17 -26 25 -26 18 0 -7 -6 -4 -15
7 -10 14 -14 15 -15 5 0 -12 -2 -12 -12 1 -11 13 -50 32 -223 108 -22 10 -69
30 -105 45 -70 29 -76 31 -163 69 -32 14 -60 26 -64 26 -3 0 -40 15 -82 33
-42 19 -105 46 -141 61 -36 15 -73 31 -82 36 -9 5 -59 26 -110 46 -51 20 -111
44 -133 54 -71 32 -256 80 -307 80 -20 0 -20 -1 -5 -18 10 -10 51 -36 92 -57
42 -21 78 -42 81 -47 3 -4 16 -8 30 -8 13 0 24 -4 24 -9 0 -5 10 -12 23 -16
12 -3 45 -17 72 -30 74 -36 186 -85 192 -85 6 0 109 -43 172 -72 44 -21 107
-46 191 -77 25 -9 47 -19 50 -22 3 -4 16 -10 30 -14 14 -4 48 -18 75 -30 28
-12 102 -41 165 -64 63 -23 138 -51 165 -62 28 -10 66 -22 85 -25 19 -4 40
-11 47 -16 7 -5 17 -7 22 -3 6 3 21 1 33 -5 23 -11 23 -11 -1 9 -32 29 -9 26
26 -3 15 -12 34 -25 41 -27 7 -3 23 -29 36 -60 64 -158 186 -226 423 -236 182
-8 373 21 373 56 0 5 -6 22 -14 38 -8 15 -20 47 -26 71 -12 48 -38 68 -128
102 -30 11 -70 33 -90 48 -33 25 -142 149 -142 161 0 4 20 17 45 30 25 13 45
27 45 31 0 4 -10 15 -21 26 -60 53 -487 621 -871 1157 l-38 52 15 465 c8 256
16 488 16 515 1 29 -18 126 -45 233 l-47 183 62 76 c94 118 92 113 74 163 -19
53 -19 60 0 60 21 0 38 48 31 89 -4 28 2 46 41 105 57 89 111 156 126 156 22
0 465 202 481 219 25 28 46 139 46 249 l0 102 -65 130 c-75 150 -115 245 -180
426 -100 276 -162 397 -227 444 -59 43 -61 37 -8 -20 26 -28 56 -70 68 -93 78
-158 139 -305 213 -512 32 -90 86 -206 152 -327 31 -57 34 -68 28 -118 -4 -36
-9 -49 -13 -37 -4 9 -17 17 -28 17 -17 0 -20 -6 -20 -44 0 -24 5 -67 10 -97
12 -63 -2 -114 -29 -104 -8 3 -12 3 -9 -1 11 -10 -14 -30 -54 -44 -20 -8 -35
-16 -33 -20 2 -3 -10 -11 -26 -17 -27 -11 -29 -10 -17 4 12 14 8 15 -37 9 -43
-7 -48 -6 -36 8 10 12 3 11 -36 -4 -26 -11 -66 -24 -89 -30 -23 -5 -62 -26
-87 -45 -26 -20 -79 -48 -119 -63 -64 -24 -73 -31 -76 -55 l-3 -27 -25 30
c-36 42 -178 134 -295 190 l-99 47 47 18 c27 10 111 49 187 88 78 40 177 81
225 94 77 21 64 24 -29 7 -35 -7 -35 -6 -15 12 40 39 88 67 143 85 67 21 49
25 -26 5 -54 -13 -60 -10 -41 26 8 15 13 17 19 8 5 -8 18 -3 44 20 37 33 48
57 22 47 -10 -4 -13 -1 -9 9 3 9 13 13 27 9 14 -4 17 -3 8 3 -15 10 39 46 123
82 25 11 45 21 45 24 0 7 -47 -11 -115 -44 -32 -16 -64 -26 -69 -22 -6 3 0 9
12 12 13 3 23 10 22 15 -2 16 -31 5 -59 -22 -14 -15 -18 -21 -8 -13 12 9 21
10 28 3 7 -7 2 -16 -16 -27 -28 -19 -50 -13 -40 12 5 14 4 14 -12 -1 -19 -17
-63 -13 -63 5 0 5 -4 7 -9 4 -5 -3 -12 13 -15 37 -4 23 -9 51 -11 62 -2 11 -4
24 -4 28 -1 13 -26 2 -27 -11 -1 -7 -2 -22 -3 -34 -2 -15 -8 -6 -18 27 -15 52
-41 92 -29 45 13 -48 66 -335 66 -356 0 -11 -15 -34 -32 -51 -34 -32 -219
-133 -318 -174 -65 -26 -91 -46 -84 -64 12 -29 -176 -188 -293 -249 -40 -20
-53 -20 -53 -1 0 20 -46 30 -65 15 -18 -15 -20 -41 -4 -57 7 -7 3 -21 -15 -48
-18 -26 -26 -51 -26 -79 0 -51 -14 -71 -60 -84 -19 -6 -120 -40 -225 -76 -104
-37 -200 -65 -212 -63 -12 2 -20 1 -18 -3 10 -17 -28 -19 -54 -4 l-28 16 25
25 c22 22 23 26 9 46 -26 40 -87 30 -87 -14 0 -21 -8 -23 -29 -10 -11 7 -12
23 -7 72 9 86 28 177 33 162 3 -7 12 -13 21 -13 11 0 13 3 6 8 -20 13 -22 38
-8 107 14 73 17 114 7 85 -3 -8 -14 -35 -26 -59 -20 -43 -20 -43 -33 -20 -7
13 -13 31 -13 39 0 9 6 4 14 -10 8 -14 14 -19 15 -12 0 6 -8 20 -18 30 -40 40
-82 178 -82 270 0 26 23 135 50 242 73 284 168 670 174 710 9 54 -50 -121 -84
-250 -32 -121 -54 -163 -87 -168 -13 -2 -29 -23 -48 -62 -15 -32 -39 -71 -52
-86 -29 -34 -30 -32 -69 71 -42 109 -74 167 -112 202 -20 18 -32 37 -28 45 14
30 87 146 170 270 48 73 133 202 187 286 103 158 118 172 182 172 18 0 68 9
112 19 44 10 96 21 116 25 l36 6 -1 -58 c0 -37 7 -74 19 -98 20 -43 50 -86 56
-79 2 2 16 -19 31 -46 l26 -50 -26 -11 c-17 -6 -69 -8 -138 -4 -106 6 -112 5
-131 -17 -37 -40 -42 -62 -68 -273 -65 -540 -103 -776 -151 -931 -3 -10 1 -7
9 7 41 71 131 582 172 978 17 166 23 188 53 215 18 17 28 17 103 7 117 -15
115 -14 83 -56 l-28 -36 -13 26 c-23 44 -83 29 -83 -21 0 -24 33 -48 56 -39
16 6 19 -5 5 -20 -9 -9 -38 -62 -101 -182 -18 -34 -30 -66 -26 -70 4 -4 53 -7
109 -7 90 0 108 3 157 27 61 30 104 80 165 191 29 52 41 67 54 61 9 -3 25 -9
36 -12 28 -7 35 -21 35 -67 0 -44 35 -259 45 -275 3 -5 -1 -21 -10 -34 -13
-19 -14 -29 -5 -45 9 -18 29 -26 45 -18 3 1 23 -27 44 -63 51 -85 114 -156
129 -146 17 10 15 359 -2 456 -8 41 -26 107 -41 145 -23 61 -46 135 -41 135 0
0 31 11 67 24 165 60 309 195 334 314 8 36 5 35 40 22 14 -5 41 -12 58 -14 18
-2 46 -7 62 -10 17 -4 -10 8 -59 27 l-89 34 -18 52 c-9 29 -22 58 -28 64 -6 6
-11 16 -11 22 0 5 41 53 91 105 225 236 339 453 339 647 0 51 3 63 16 63 9 0
31 15 50 34 27 27 34 42 34 73 0 38 -30 177 -36 170 -2 -2 1 -26 7 -53 20 -82
15 -141 -11 -169 -43 -45 -50 -35 -50 73 0 75 5 107 20 141 24 53 38 199 22
227 -9 15 -11 3 -12 -58z m-530 -1118 c0 -5 -4 -10 -10 -10 -5 0 -10 5 -10 10
0 6 5 10 10 10 6 0 10 -4 10 -10z m-902 -109 c-1 -16 -6 -27 -10 -25 -12 7
-10 54 2 54 6 0 9 -13 8 -29z m-1724 -143 c54 -43 276 -265 276 -276 0 -16
-37 -43 -75 -53 -32 -9 -44 -7 -90 16 -29 15 -94 66 -144 114 -84 80 -91 90
-91 126 0 42 40 105 67 105 8 0 34 -15 57 -32z m2026 -30 c0 -6 -6 -5 -15 2
-8 7 -15 14 -15 16 0 2 7 1 15 -2 8 -4 15 -11 15 -16z m45 -18 c3 -5 2 -10 -4
-10 -5 0 -13 5 -16 10 -3 6 -2 10 4 10 5 0 13 -4 16 -10z m-2130 -160 c55 -59
141 -118 228 -159 98 -45 107 -62 56 -105 -37 -31 -63 -32 -148 -6 -73 22 -91
36 -172 138 -64 79 -74 117 -43 160 18 26 33 21 79 -28z m2175 -1 c0 -14 -16
-11 -29 5 -10 12 -8 13 8 9 12 -3 21 -9 21 -14z m-2175 -208 c38 -50 59 -68
87 -76 47 -13 52 -19 36 -44 -18 -30 -36 -33 -92 -19 -62 16 -121 71 -159 150
l-26 53 32 29 31 29 21 -28 c11 -15 43 -58 70 -94z m365 79 c14 -26 69 -67
102 -75 24 -6 29 -3 38 20 15 39 21 26 9 -17 -14 -53 -69 -98 -121 -98 -31 0
-49 -7 -76 -31 -33 -30 -39 -31 -95 -26 -63 6 -81 15 -72 38 4 10 19 13 59 11
50 -4 56 -2 95 36 53 51 56 85 7 109 l-35 16 32 17 c42 23 45 23 57 0z m180
-148 c0 -59 -31 -155 -56 -179 -14 -12 -28 -23 -31 -23 -4 0 -14 -7 -23 -15
-15 -13 -22 -8 -77 54 l-62 68 29 22 c20 14 44 21 77 21 61 0 94 17 113 56 17
37 30 35 30 -4z m-162 -237 l42 -54 -24 -25 c-13 -15 -29 -26 -35 -26 -7 0 -9
-4 -6 -10 3 -5 2 -10 -4 -10 -5 0 -16 -7 -24 -15 -8 -8 -33 -17 -56 -20 -40
-5 -40 -5 -30 22 28 75 82 193 88 192 3 0 25 -24 49 -54z m2539 -317 c-3 -8
-6 -5 -6 6 -1 11 2 17 5 13 3 -3 4 -12 1 -19z m29 -69 c4 -21 10 -39 15 -39 5
0 9 -7 9 -16 0 -10 6 -14 15 -10 8 3 15 2 14 -2 -1 -11 -27 -78 -28 -71 -2 15
-40 156 -47 173 -5 14 -4 17 4 12 7 -4 15 -25 18 -47z m-400 -458 c-3 -5 1
-11 9 -15 8 -3 15 -1 15 5 0 6 7 3 16 -5 8 -9 20 -16 25 -16 5 0 27 -18 49
-40 22 -22 46 -40 54 -40 7 0 19 -7 26 -15 11 -13 15 -13 21 -3 6 9 9 7 9 -7
-1 -44 -42 -108 -117 -180 -43 -41 -73 -75 -67 -75 6 0 17 7 24 15 7 8 17 15
22 15 7 0 7 -4 0 -12 -24 -30 -62 -238 -43 -238 4 0 24 12 45 26 38 26 64 25
73 -3 5 -14 -107 -123 -127 -123 -37 0 -82 23 -91 47 -5 13 -12 63 -15 111 -8
106 -23 143 -24 57 0 -33 3 -91 7 -129 l6 -69 48 -20 47 -20 -23 -19 c-32 -25
-91 -23 -140 5 -46 26 -51 42 -61 190 -4 54 -11 100 -16 103 -9 6 -9 -141 1
-230 l6 -60 55 -22 55 -22 -28 -11 c-42 -16 -61 -14 -121 16 -60 29 -59 27
-76 153 -7 47 -15 101 -20 120 -7 31 -8 32 -9 8 -1 -15 -14 -61 -31 -103 -36
-90 -36 -94 -9 -69 21 19 21 18 40 -5 10 -13 19 -36 19 -52 0 -22 7 -32 31
-44 17 -9 28 -19 25 -22 -8 -8 -170 17 -196 30 -14 8 -28 29 -36 57 -11 38
-11 55 2 115 8 38 22 104 31 145 23 109 33 124 115 165 148 75 292 185 338
261 12 19 26 34 31 34 6 0 8 -4 5 -9z m-1217 -246 l33 -65 -13 -103 c-7 -56
-12 -115 -12 -130 1 -21 -4 -27 -16 -25 -11 2 -28 40 -54 117 l-38 113 27 79
c15 44 30 79 33 79 3 0 21 -29 40 -65z m1468 58 c-4 -3 -1 -13 7 -22 8 -9 22
-42 31 -74 13 -46 14 -61 4 -73 -10 -12 -9 -13 7 -7 16 6 17 5 4 -9 -14 -15
-17 -15 -43 0 -15 9 -41 31 -58 48 l-31 32 38 56 c20 31 39 56 42 56 3 0 2 -3
-1 -7z m187 -165 c-26 -51 -55 -78 -83 -77 -21 1 -22 2 -6 6 29 7 56 34 72 71
7 17 18 32 23 32 6 0 3 -15 -6 -32z m-145 -83 c0 -5 -4 -9 -8 -8 -3 1 -42 -7
-86 -18 -122 -30 -127 -30 -123 -5 3 18 13 22 88 32 98 13 131 13 129 -1z m69
-112 c-1 -5 2 -25 6 -45 10 -47 -16 -95 -100 -186 -59 -63 -59 -64 -174 -97
-167 -48 -339 -85 -428 -91 -91 -7 -163 7 -307 61 -55 20 -117 42 -137 47 -21
6 -38 14 -38 18 0 21 271 122 277 103 15 -45 84 -66 261 -82 110 -9 174 -3
187 19 4 6 18 10 33 10 38 0 79 27 167 113 60 58 77 80 73 95 -5 19 0 21 51
27 31 4 61 8 66 10 19 7 65 5 63 -2z m-2815 -138 c-3 -9 -8 -14 -10 -11 -3 3
-2 9 2 15 9 16 15 13 8 -4z m1526 -40 c22 -24 41 -51 41 -59 0 -8 2 -20 5 -28
3 -7 -6 -18 -20 -25 -14 -6 -23 -8 -20 -3 3 4 -2 7 -11 6 -10 -1 -22 16 -34
48 -11 26 -26 56 -34 65 -23 25 -20 41 8 41 15 0 38 -16 65 -45z m-1206 -36
c33 -16 62 -27 65 -24 3 3 -1 5 -8 5 -7 0 -11 2 -8 5 7 8 68 -16 68 -26 0 -5
-20 -9 -44 -9 -30 0 -46 -5 -50 -15 -3 -8 -11 -15 -17 -15 -8 0 -8 4 1 15 10
13 10 19 -3 33 -18 20 -67 45 -117 61 -35 11 -35 11 10 5 24 -3 71 -18 103
-35z m-200 16 c-25 -11 -33 -20 -33 -40 0 -20 8 -29 33 -40 19 -9 25 -14 14
-15 -10 0 -31 10 -46 21 -29 21 -37 22 -153 16 -27 -2 -48 0 -48 4 0 4 21 19
48 34 26 14 41 21 35 14 -18 -18 -16 -28 5 -27 9 1 37 -2 61 -6 29 -6 41 -5
37 2 -8 13 40 52 63 52 9 -1 1 -7 -16 -15z m1014 -15 c-16 -5 -34 -12 -41 -17
-6 -4 -3 0 7 10 11 9 29 17 41 16 17 -1 16 -2 -7 -9z m-838 -82 c-11 -20 -25
-23 -34 -8 -10 16 -25 12 -25 -6 0 -13 -3 -14 -14 -5 -11 9 -20 10 -36 1 -30
-16 -46 -8 -26 13 10 9 13 17 7 17 -6 0 -11 4 -11 9 0 10 92 7 110 -4 10 -6
12 -4 7 8 -5 14 -3 15 13 5 14 -9 16 -16 9 -30z m-436 0 c-3 -16 -9 -28 -14
-28 -12 0 -11 4 3 35 14 31 18 29 11 -7z m157 12 c0 -13 -11 -13 -30 0 -12 8
-11 10 8 10 12 0 22 -4 22 -10z m30 0 c0 -5 -5 -10 -11 -10 -5 0 -7 5 -4 10 3
6 8 10 11 10 2 0 4 -4 4 -10z m400 -11 c13 -9 13 -10 -2 -5 -9 2 -31 1 -49 -4
-36 -11 -52 -4 -29 10 20 13 62 12 80 -1z m-370 -9 c0 -5 -2 -10 -4 -10 -3 0
-8 5 -11 10 -3 6 -1 10 4 10 6 0 11 -4 11 -10z m1711 -78 c97 -33 197 -62 222
-66 61 -9 232 15 421 59 82 19 152 33 154 30 3 -3 0 -5 -7 -5 -17 0 -7 -44 18
-79 33 -48 71 -166 82 -257 12 -97 7 -185 -15 -279 -35 -151 -47 -221 -42
-250 4 -16 8 -38 9 -47 2 -10 12 -26 22 -38 32 -35 5 -22 -109 54 -213 141
-260 164 -362 177 -92 11 -103 11 -309 -21 -187 -28 -223 -32 -278 -31 -88 1
-118 13 -290 115 l-158 93 26 17 c14 9 25 12 25 6 0 -5 -4 -10 -10 -10 -5 0
-10 -4 -10 -10 0 -16 22 -12 37 8 13 15 13 15 4 -5 -13 -26 5 -44 21 -22 7 11
8 10 6 -5 -2 -12 5 -22 21 -27 21 -8 22 -7 11 6 -14 17 0 21 17 4 7 -7 15 -2
27 15 9 15 26 26 37 26 29 0 59 18 59 36 0 23 -40 75 -52 68 -6 -4 -6 1 1 14
6 11 8 28 5 36 -4 11 0 16 11 16 13 0 16 6 12 22 -8 28 25 72 42 55 6 -6 11
-7 11 -1 0 5 -5 15 -11 21 -8 8 -8 13 0 17 6 4 11 1 11 -6 0 -9 3 -9 10 2 5 8
10 22 10 30 0 13 -2 13 -11 0 -9 -12 -10 -11 -4 5 3 11 11 39 18 63 8 30 16
42 30 42 29 0 57 19 57 38 0 10 -13 31 -29 46 -16 16 -27 35 -24 42 7 18 82
63 97 58 6 -2 90 -30 187 -62z m918 16 c40 -170 61 -288 60 -333 -1 -45 -2
-43 -10 24 -5 41 -18 108 -29 149 -11 40 -18 77 -15 82 3 5 1 11 -4 14 -5 3
-12 23 -15 43 -4 21 -9 46 -12 56 -3 9 -1 17 4 17 5 0 14 -24 21 -52z m-1323
-191 c-14 -18 -54 -58 -89 -89 -59 -52 -65 -55 -80 -41 -15 15 -17 15 -23 -1
-4 -11 -2 -21 6 -26 7 -4 11 -17 8 -27 -3 -12 0 -20 7 -20 7 0 11 6 9 12 -8
21 22 38 45 25 12 -6 21 -13 21 -16 0 -2 -9 0 -19 6 -26 13 -27 13 -28 -11 -2
-18 0 -19 14 -7 15 12 15 11 4 -9 -16 -31 -6 -29 24 3 14 15 25 23 25 18 0
-25 -153 -142 -270 -207 -85 -46 -152 -73 -275 -109 -107 -31 -277 -62 -304
-55 -9 3 -3 5 13 6 24 1 27 3 16 16 -7 9 -20 13 -28 10 -9 -3 -12 0 -9 9 4 10
1 13 -7 10 -15 -6 -27 28 -17 45 4 6 41 13 82 16 52 3 77 9 85 20 11 15 13 15
23 -2 8 -13 13 -15 18 -6 5 6 31 17 58 24 52 12 92 36 45 26 -95 -19 -96 -19
-76 -3 11 9 17 19 13 23 -4 3 4 21 18 39 14 18 25 36 25 41 0 4 21 32 46 61
35 39 54 52 73 51 14 0 20 -3 14 -6 -7 -2 -13 -9 -13 -14 0 -16 97 -105 109
-101 7 2 17 0 24 -5 7 -4 6 -2 -3 6 -14 13 -10 20 33 63 26 26 57 48 67 48 32
0 95 38 120 73 18 25 19 29 4 17 -26 -21 -99 -60 -113 -60 -18 0 -12 24 9 38
11 7 20 18 20 25 0 20 52 65 57 50 7 -20 25 -15 19 5 -5 14 3 22 29 35 44 21
44 21 43 0 0 -10 3 -31 7 -48 7 -26 6 -28 -7 -18 -18 16 -28 7 -28 -24 0 -35
23 -28 71 22 24 25 49 45 55 45 12 0 25 23 33 56 0 3 6 2 11 -1 6 -4 0 -19
-14 -38z m-99 -142 c0 -8 -4 -12 -9 -9 -5 3 -6 10 -3 15 9 13 12 11 12 -6z
m90 -46 c-12 -7 -16 -17 -11 -31 5 -18 4 -19 -9 -7 -14 12 -13 16 6 36 11 13
23 20 26 17 3 -3 -2 -10 -12 -15z m-817 -149 c0 -5 -4 -10 -10 -10 -5 0 -10 5
-10 10 0 6 5 10 10 10 6 0 10 -4 10 -10z m-295 -9 c-3 -6 41 -9 109 -8 121 2
136 -5 70 -36 -48 -23 -115 -21 -168 5 -40 19 -43 23 -28 34 20 16 25 17 17 5z
m-319 -55 c50 -15 170 -33 259 -40 28 -2 1 -2 -60 0 -97 3 -234 29 -253 49 -8
8 0 6 54 -9z m2804 -433 c0 -10 -4 -14 -8 -8 -4 6 -11 13 -16 18 -5 4 -2 7 7
7 10 0 17 -8 17 -17z"/>
<path d="M2876 2927 c3 -10 9 -15 12 -12 3 3 0 11 -7 18 -10 9 -11 8 -5 -6z"/>
<path d="M2857 2913 c-10 -10 -8 -53 2 -53 5 0 16 -3 25 -6 22 -8 20 12 -3 35
-11 11 -17 22 -13 25 3 3 3 6 0 6 -2 0 -8 -3 -11 -7z"/>
<path d="M2537 2876 c-8 -8 -18 -12 -22 -8 -6 7 4 -49 11 -57 2 -2 4 6 4 19 0
12 8 29 17 36 10 7 15 15 12 19 -4 3 -13 -1 -22 -9z"/>
<path d="M2918 2873 c7 -3 16 -2 19 1 4 3 -2 6 -13 5 -11 0 -14 -3 -6 -6z"/>
<path d="M2760 2856 c0 -9 -4 -16 -10 -16 -13 0 -13 -47 0 -55 6 -4 8 -10 6
-14 -3 -4 4 -12 15 -19 24 -16 24 -7 -1 25 -27 35 -18 40 20 13 39 -28 48 -20
21 18 -26 37 -26 43 -3 35 9 -3 14 -3 10 1 -3 4 -12 8 -20 10 -7 1 -19 5 -25
9 -8 5 -13 3 -13 -7z"/>
<path d="M2626 2805 c-11 -8 -16 -18 -12 -22 4 -4 10 -2 14 4 5 7 13 9 21 4
11 -7 9 -10 -8 -16 -11 -3 -21 -11 -21 -16 0 -12 7 -11 31 1 22 12 24 20 7 43
-12 14 -15 14 -32 2z"/>
<path d="M2560 2791 c0 -6 4 -13 10 -16 6 -3 7 1 4 9 -7 18 -14 21 -14 7z"/>
<path d="M2458 2784 c-12 -11 5 -44 23 -44 18 0 19 1 3 25 -18 27 -18 28 -26
19z"/>
<path d="M2698 2772 c-16 -7 -16 -9 1 -31 18 -23 18 -23 24 -2 3 13 1 19 -6
14 -6 -4 -8 0 -4 10 3 10 5 17 4 16 -1 0 -10 -3 -19 -7z"/>
<path d="M2565 2740 c-3 -5 -1 -10 4 -10 6 0 11 5 11 10 0 6 -2 10 -4 10 -3 0
-8 -4 -11 -10z"/>
<path d="M2555 2680 c-3 -5 -2 -10 4 -10 5 0 13 5 16 10 3 6 2 10 -4 10 -5 0
-13 -4 -16 -10z"/>
<path d="M2250 2640 c0 -5 5 -10 11 -10 5 0 7 5 4 10 -3 6 -8 10 -11 10 -2 0
-4 -4 -4 -10z"/>
<path d="M2233 2603 c-15 -5 -17 -23 -4 -23 5 0 11 7 15 15 3 8 4 15 3 14 -1
0 -8 -3 -14 -6z"/>
<path d="M1655 7130 c14 -6 15 -9 5 -10 -10 -1 -9 -4 5 -10 28 -12 55 -12 55
0 0 6 -9 10 -19 10 -11 0 -23 5 -26 10 -3 6 -14 10 -23 9 -14 0 -13 -2 3 -9z"/>
<path d="M1526 7083 c9 -7 21 -10 26 -7 5 3 7 0 6 -7 -4 -16 115 -58 163 -59
41 0 99 18 99 31 0 5 -18 7 -40 4 -23 -3 -69 0 -103 6 -34 6 -70 12 -79 12 -9
1 -15 3 -13 5 10 10 -26 32 -50 30 -23 -2 -24 -4 -9 -15z"/>
<path d="M2842 6920 c0 -19 2 -27 5 -17 2 9 2 25 0 35 -3 9 -5 1 -5 -18z"/>
<path d="M1655 6920 c11 -5 29 -8 40 -8 16 0 15 2 -5 8 -34 11 -60 11 -35 0z"/>
<path d="M1540 6900 c0 -5 5 -10 11 -10 5 0 7 5 4 10 -3 6 -8 10 -11 10 -2 0
-4 -4 -4 -10z"/>
<path d="M3597 6893 c-4 -3 -7 -11 -7 -17 0 -6 5 -5 12 2 6 6 9 14 7 17 -3 3
-9 2 -12 -2z"/>
<path d="M1627 6861 c34 -17 83 -34 109 -38 44 -6 46 -5 36 14 -8 15 -29 23
-84 32 -40 7 -84 14 -98 17 -14 3 3 -8 37 -25z"/>
<path d="M1790 6850 c1 -22 20 -32 46 -23 42 14 39 28 -6 28 -22 0 -40 -2 -40
-5z"/>
<path d="M2020 6699 c0 -5 -4 -7 -10 -4 -5 3 -10 -1 -10 -10 0 -22 34 -15 38
8 2 9 -1 17 -7 17 -6 0 -11 -5 -11 -11z"/>
<path d="M3582 6666 c-12 -21 -29 -36 -40 -36 -10 0 -19 -6 -20 -12 -1 -7 -5
-31 -8 -53 l-5 -40 21 24 c15 18 24 22 29 13 9 -15 37 -6 45 14 4 9 2 12 -5 8
-7 -4 -10 1 -7 12 2 10 12 20 22 22 13 3 17 0 14 -9 -7 -17 8 -59 21 -59 5 0
11 9 14 20 3 11 10 20 17 20 7 0 9 -8 4 -22 -7 -23 -6 -23 14 -4 12 10 19 22
17 26 -3 4 2 11 11 14 22 8 24 8 24 -6 1 -7 26 -30 56 -50 69 -47 109 -49 173
-9 25 16 56 32 69 36 14 4 21 12 18 21 -9 23 10 25 30 3 16 -17 16 -22 4 -30
-11 -8 -8 -9 13 -6 16 3 34 -1 42 -9 12 -12 15 -11 20 6 4 12 1 27 -5 35 -10
12 -10 15 -1 15 7 0 9 5 6 11 -4 6 -10 8 -13 5 -3 -4 -16 4 -29 16 -12 12 -26
18 -30 14 -5 -4 4 -18 20 -31 15 -13 27 -30 27 -37 0 -7 -18 5 -39 27 -31 32
-36 43 -27 54 16 21 -47 -14 -113 -60 -68 -49 -108 -51 -174 -9 -82 52 -131
74 -124 56 9 -22 -22 -8 -48 22 l-21 25 -22 -37z m33 -26 c-3 -5 -10 -10 -16
-10 -5 0 -9 5 -9 10 0 6 7 10 16 10 8 0 12 -4 9 -10z"/>
<path d="M1617 6639 c7 -7 15 -10 18 -7 3 3 -2 9 -12 12 -14 6 -15 5 -6 -5z"/>
<path d="M1757 6636 c3 -4 -5 -5 -18 -1 -22 6 -22 6 -6 -6 12 -10 39 -13 83
-11 64 4 65 4 39 18 -29 15 -107 15 -98 0z"/>
<path d="M3458 6618 c-6 -17 17 -94 24 -82 16 26 19 77 7 85 -19 12 -26 11
-31 -3z"/>
<path d="M3358 6583 c-21 -23 -24 -35 -21 -65 3 -21 10 -38 15 -38 7 0 8 16 5
40 -8 65 12 59 28 -8 7 -28 15 -24 15 7 0 24 5 34 20 38 11 3 20 10 20 15 0 5
-10 6 -21 3 -19 -6 -21 -4 -16 14 7 30 -14 27 -45 -6z"/>
<path d="M4347 6586 c-4 -10 -7 -27 -7 -39 0 -19 2 -20 15 -6 11 11 13 22 7
39 -8 20 -9 21 -15 6z"/>
<path d="M4450 6571 c0 -12 5 -21 10 -21 6 0 10 6 10 14 0 8 -4 18 -10 21 -5
3 -10 -3 -10 -14z"/>
<path d="M3268 6574 c-5 -4 -8 -21 -7 -38 0 -30 0 -30 10 -7 11 27 8 57 -3 45z"/>
<path d="M4201 6563 c-7 -8 -11 -16 -8 -19 2 -2 10 2 17 11 17 20 9 27 -9 8z"/>
<path d="M4400 6555 c7 -9 10 -18 6 -22 -3 -3 -6 -1 -6 5 0 7 -4 12 -10 12
-14 0 -12 -16 4 -32 29 -30 2 -43 -96 -46 -106 -4 -267 -26 -347 -48 -41 -12
-64 -13 -95 -6 -41 10 -152 25 -316 41 -61 6 -96 4 -125 -5 -22 -6 -32 -12
-22 -13 10 -1 44 -18 75 -40 77 -52 196 -111 257 -127 118 -32 289 -26 382 12
50 22 132 76 188 126 48 43 109 66 121 46 12 -19 22 -5 29 39 6 39 4 49 -11
60 -10 7 -24 13 -32 13 -12 0 -12 -3 -2 -15z m-180 -120 c18 -22 5 -58 -31
-84 -26 -20 -36 -22 -51 -12 -14 9 -18 8 -18 -3 0 -14 -49 -36 -81 -36 -11 0
-19 -6 -19 -14 0 -10 -21 -15 -77 -18 -93 -6 -163 1 -163 16 0 6 -15 12 -32
13 -72 3 -106 15 -165 60 -25 18 -33 32 -33 54 l0 31 63 -7 c34 -3 114 -13
177 -21 88 -12 124 -13 155 -4 41 11 203 37 241 39 12 1 27 -6 34 -14z"/>
<path d="M3300 6540 c-7 -16 -5 -100 2 -100 13 0 19 44 9 75 -5 17 -10 28 -11
25z"/>
<path d="M1673 6493 c15 -2 37 -2 50 0 12 2 0 4 -28 4 -27 0 -38 -2 -22 -4z"/>
<path d="M1833 6470 c-35 -10 -108 -22 -164 -26 -62 -4 -96 -10 -87 -15 10 -7
9 -9 -4 -9 -9 0 -20 5 -23 10 -4 6 -11 7 -18 3 -19 -11 24 -22 95 -22 57 -1
67 -4 66 -18 -1 -51 16 -232 21 -228 4 2 3 39 0 82 -4 43 -8 97 -8 119 -1 39
1 42 29 46 40 6 81 -20 117 -74 44 -65 53 -93 53 -159 0 -38 4 -58 10 -54 17
11 11 112 -10 168 -11 29 -36 71 -56 92 -20 22 -32 41 -27 42 29 10 77 40 81
51 5 15 1 15 -75 -8z"/>
<path d="M1486 6451 c-4 -7 -5 -15 -2 -18 9 -9 19 4 14 18 -4 11 -6 11 -12 0z"/>
<path d="M4647 6433 c-3 -16 -1 -35 4 -43 6 -10 8 -2 9 28 0 48 -5 55 -13 15z"/>
<path d="M3110 6402 c0 -23 5 -42 10 -42 7 0 8 14 4 38 -9 51 -14 53 -14 4z"/>
<path d="M1114 6381 c-38 -23 -44 -32 -54 -77 -10 -42 8 -64 49 -64 50 0 215
-47 278 -79 34 -16 91 -53 128 -81 36 -27 72 -50 79 -50 14 0 98 128 94 142
-4 11 -505 227 -528 228 -8 0 -29 -9 -46 -19z m46 -55 c0 -15 -18 -31 -26 -23
-7 7 7 37 17 37 5 0 9 -6 9 -14z m435 -176 c0 -8 -8 -16 -17 -18 -13 -2 -18 3
-18 18 0 15 5 20 18 18 9 -2 17 -10 17 -18z"/>
<path d="M4710 6379 c0 -5 5 -7 10 -4 6 3 10 8 10 11 0 2 -4 4 -10 4 -5 0 -10
-5 -10 -11z"/>
<path d="M3040 6351 c0 -5 5 -13 10 -16 6 -3 10 -2 10 4 0 5 -4 13 -10 16 -5
3 -10 2 -10 -4z"/>
<path d="M4687 6347 c-3 -8 -2 -19 3 -26 5 -9 9 -4 12 13 5 27 -6 36 -15 13z"/>
<path d="M3071 6308 c-1 -15 4 -30 9 -33 12 -7 12 12 0 40 -8 18 -9 17 -9 -7z"/>
<path d="M2005 6170 c-3 -5 -2 -10 4 -10 5 0 13 5 16 10 3 6 2 10 -4 10 -5 0
-13 -4 -16 -10z"/>
<path d="M1950 6150 c0 -5 7 -7 15 -4 8 4 15 8 15 10 0 2 -7 4 -15 4 -8 0 -15
-4 -15 -10z"/>
<path d="M2074 6152 c5 -9 -6 -10 -40 -5 -32 4 -45 3 -41 -4 4 -6 17 -9 29 -5
15 4 19 2 13 -7 -6 -10 -2 -11 16 -6 33 10 43 21 28 30 -8 5 -10 4 -5 -3z"/>
<path d="M4460 6119 c-7 -11 -10 -23 -7 -25 2 -2 9 7 15 21 14 30 7 33 -8 4z"/>
<path d="M3440 6106 c0 -18 24 -76 32 -76 4 0 8 3 8 8 -1 12 -39 78 -40 68z"/>
<path d="M3316 6087 c3 -10 9 -15 12 -12 3 3 0 11 -7 18 -10 9 -11 8 -5 -6z"/>
<path d="M3416 6070 c3 -14 10 -29 15 -34 14 -16 10 6 -7 34 l-15 25 7 -25z"/>
<path d="M3760 6076 c0 -2 7 -9 15 -16 9 -7 15 -8 15 -2 0 5 -7 12 -15 16 -8
3 -15 4 -15 2z"/>
<path d="M3871 6053 c-8 -15 -12 -16 -22 -5 -20 19 -29 14 -29 -15 0 -18 3
-23 8 -16 6 10 15 10 41 0 l32 -12 -43 -11 -43 -12 45 0 c25 0 68 3 95 8 46 7
47 8 15 10 -19 2 -41 3 -47 3 -20 -1 -15 4 18 21 16 8 36 13 44 10 10 -4 12 0
8 15 -7 26 -18 26 -50 2 -26 -21 -58 -17 -49 5 8 20 -11 17 -23 -3z"/>
<path d="M3367 6039 c4 -13 8 -18 11 -10 2 7 -1 18 -6 23 -8 8 -9 4 -5 -13z"/>
<path d="M2092 5801 c23 -38 151 -83 161 -57 7 17 -80 64 -132 72 -42 7 -43 7
-29 -15z"/>
<path d="M1960 5770 c11 -21 48 -45 57 -36 6 6 -47 55 -60 56 -4 0 -3 -9 3
-20z"/>
<path d="M2730 5655 c-11 -13 -8 -15 19 -15 36 0 39 5 12 19 -14 8 -22 7 -31
-4z"/>
<path d="M3240 5620 c0 -5 5 -10 10 -10 6 0 10 5 10 10 0 6 -4 10 -10 10 -5 0
-10 -4 -10 -10z"/>
<path d="M2059 5573 c-5 -14 -8 -31 -6 -37 3 -6 8 2 12 17 7 27 8 27 28 10 20
-18 20 -18 2 10 -21 33 -23 33 -36 0z"/>
<path d="M4517 4973 c-4 -3 -7 -24 -7 -46 0 -49 6 -45 18 11 9 39 5 52 -11 35z"/>
<path d="M2154 4919 c-3 -6 0 -15 7 -20 9 -6 10 -9 2 -9 -6 0 -15 5 -18 10
-10 15 -28 12 -22 -4 3 -8 1 -17 -6 -19 -7 -2 2 -3 18 0 35 4 92 53 62 53 -9
0 -17 -4 -17 -10 0 -5 -5 -10 -11 -10 -5 0 -7 5 -4 10 3 6 4 10 1 10 -3 0 -8
-5 -12 -11z"/>
<path d="M3327 4902 c-20 -22 -22 -43 -5 -60 26 -26 78 -7 78 28 -1 40 -47 60
-73 32z"/>
<path d="M4551 4844 c0 -11 3 -14 6 -6 3 7 2 16 -1 19 -3 4 -6 -2 -5 -13z"/>
<path d="M4828 4763 c-10 -2 -18 -9 -18 -14 0 -13 12 -11 34 6 20 15 16 17
-16 8z"/>
<path d="M1543 4653 c-21 -8 -15 -22 17 -38 37 -19 44 -19 36 3 -5 14 -4 14 9
-2 15 -19 30 -20 17 0 -7 9 -59 45 -64 43 -2 0 -9 -3 -15 -6z m27 -13 c0 -5
-2 -10 -4 -10 -3 0 -8 5 -11 10 -3 6 -1 10 4 10 6 0 11 -4 11 -10z"/>
<path d="M1360 4641 c0 -19 87 -85 155 -118 80 -38 168 -53 203 -34 29 16 28
29 -2 24 -32 -7 -183 33 -226 60 -19 11 -48 33 -64 49 -29 27 -66 38 -66 19z
m44 -16 c11 -8 17 -17 14 -21 -4 -3 -16 4 -27 15 -24 24 -15 28 13 6z m101
-83 c-3 -3 -11 0 -18 7 -9 10 -8 11 6 5 10 -3 15 -9 12 -12z"/>
<path d="M4813 4563 c9 -2 23 -2 30 0 6 3 -1 5 -18 5 -16 0 -22 -2 -12 -5z"/>
<path d="M3262 4488 c-25 -25 -2 -78 33 -78 7 0 21 7 29 16 9 8 16 22 16 29 0
35 -53 58 -78 33z"/>
<path d="M3835 4410 c-17 -18 -17 -21 -1 -45 18 -27 45 -32 64 -13 18 18 14
56 -7 68 -27 14 -35 13 -56 -10z"/>
<path d="M5135 4220 c-3 -6 1 -7 9 -4 18 7 21 14 7 14 -6 0 -13 -4 -16 -10z"/>
<path d="M3081 4117 c-7 -21 -11 -40 -8 -43 7 -7 29 54 25 68 -3 7 -10 -4 -17
-25z"/>
<path d="M3147 4053 c-11 -11 -8 -58 5 -71 33 -33 91 16 68 57 -10 20 -58 30
-73 14z"/>
<path d="M1595 4040 c-3 -5 -1 -10 4 -10 6 0 11 5 11 10 0 6 -2 10 -4 10 -3 0
-8 -4 -11 -10z"/>
<path d="M2158 3940 c12 -5 22 -12 22 -15 0 -4 -4 -3 -10 0 -5 3 -10 1 -10 -4
0 -14 2 -14 37 0 26 10 27 12 8 19 -11 5 -31 9 -45 9 -25 0 -25 0 -2 -9z"/>
<path d="M2120 3920 l-25 -8 28 -1 c15 -1 27 4 27 9 0 6 -1 10 -2 9 -2 -1 -14
-5 -28 -9z"/>
<path d="M2361 3915 c-1 -13 -58 -38 -135 -60 -42 -12 -84 -16 -151 -13 -70 3
-92 1 -88 -9 16 -40 200 -42 291 -3 56 24 97 62 89 82 -3 7 -6 8 -6 3z"/>
<path d="M1697 3901 c-17 -6 -17 -8 2 -25 19 -17 21 -18 27 -2 9 22 -6 36 -29
27z"/>
<path d="M1908 3809 c-12 -16 -30 -31 -40 -35 -24 -7 -20 -47 5 -52 9 -2 31 8
48 22 17 14 37 26 44 26 15 0 30 34 21 49 -3 5 -17 11 -31 14 -20 3 -31 -2
-47 -24z"/>
<path d="M1535 3800 c-3 -5 -1 -10 4 -10 6 0 11 5 11 10 0 6 -2 10 -4 10 -3 0
-8 -4 -11 -10z"/>
<path d="M1786 3761 c-4 -7 -5 -15 -2 -18 9 -9 19 4 14 18 -4 11 -6 11 -12 0z"/>
<path d="M1685 3750 c-3 -5 1 -10 9 -10 8 0 18 5 21 10 3 6 -1 10 -9 10 -8 0
-18 -4 -21 -10z"/>
<path d="M1954 3706 c-3 -8 -13 -12 -22 -9 -10 3 -7 -4 8 -16 30 -25 45 -22
45 9 0 27 -22 39 -31 16z"/>
<path d="M1623 3703 c-7 -2 -13 -9 -13 -15 0 -14 43 -6 48 10 4 12 -12 15 -35
5z"/>
<path d="M1544 3642 c-61 -35 -9 -57 63 -27 35 15 35 16 17 30 -25 19 -42 18
-80 -3z"/>
<path d="M1884 3646 c-18 -8 -35 -19 -39 -25 -15 -25 210 -101 298 -101 59 0
58 11 -2 57 -37 29 -47 32 -87 26 -36 -5 -49 -2 -67 14 -20 18 -61 44 -69 43
-2 -1 -17 -7 -34 -14z"/>
<path d="M1120 3575 c-19 -23 10 -59 60 -74 23 -7 49 -15 58 -18 12 -5 14 -1
9 27 -11 50 -25 62 -73 58 -30 -2 -40 0 -37 10 7 16 -2 15 -17 -3z"/>
<path d="M1270 3563 c0 -13 47 -29 57 -19 3 3 0 12 -6 20 -15 18 -51 17 -51
-1z"/>
<path d="M2676 3343 c-4 -4 -47 -8 -97 -9 -50 -1 -93 -4 -95 -7 -3 -3 11 -21
32 -40 33 -30 42 -33 67 -26 46 13 117 58 117 74 0 16 -12 20 -24 8z"/>
<path d="M1442 3261 c-32 -31 -114 -61 -165 -61 -41 0 -31 -18 41 -68 33 -23
78 -66 98 -94 35 -47 39 -49 47 -31 5 12 20 27 34 34 56 30 227 -1 221 -40 -2
-9 3 -15 11 -13 7 2 23 -6 35 -17 20 -19 24 -19 64 -5 38 13 189 33 250 34 12
0 22 4 22 10 0 5 -7 7 -15 4 -17 -7 -19 0 -5 26 7 13 6 19 -5 24 -8 3 -15 16
-15 29 0 29 -29 32 -48 5 -16 -22 -32 -24 -32 -3 0 19 -9 19 -34 0 -30 -23
-34 -19 -31 32 5 60 1 65 -33 47 -24 -12 -27 -12 -30 1 -2 8 -8 15 -13 15 -5
0 -9 9 -9 20 0 11 -3 20 -6 20 -11 0 -34 -29 -34 -44 0 -9 -4 -16 -10 -16 -5
0 -10 11 -10 24 0 24 -2 25 -61 20 -63 -5 -95 10 -83 39 4 11 -12 17 -65 25
-91 15 -83 17 -119 -17z"/>
<path d="M2335 3260 c-30 -7 -30 -7 -5 -13 51 -13 189 -12 175 2 -13 12 -133
20 -170 11z"/>
<path d="M2198 3234 c-35 -15 -36 -17 -21 -32 12 -12 18 -13 21 -4 2 6 8 12
14 12 13 0 38 -26 38 -39 0 -20 16 -11 33 19 16 26 16 30 3 30 -9 0 -16 7 -16
15 0 19 -24 18 -72 -1z"/>
<path d="M3022 3220 c-12 -10 -22 -22 -22 -26 0 -4 8 0 18 8 9 9 24 17 32 20
7 2 10 7 4 10 -5 3 -19 -2 -32 -12z"/>
<path d="M1123 3218 c15 -5 27 -15 27 -20 0 -6 3 -8 6 -5 11 11 -17 37 -40 36
-18 0 -17 -2 7 -11z"/>
<path d="M1001 3185 c-58 -46 -84 -48 -61 -4 6 10 8 19 6 19 -3 0 -10 -9 -16
-21 -9 -16 -8 -25 6 -40 23 -25 31 -24 84 11 25 16 48 30 52 30 5 0 25 -16 47
-35 64 -58 161 -92 161 -56 0 5 -16 15 -37 22 -20 6 -55 28 -77 49 -78 71
-102 75 -165 25z"/>
<path d="M2300 3189 c0 -5 9 -9 20 -9 11 0 20 2 20 4 0 2 -9 6 -20 9 -11 3
-20 1 -20 -4z"/>
<path d="M1196 3165 c16 -14 33 -25 37 -25 5 0 -5 11 -21 25 -17 14 -33 25
-37 25 -5 0 5 -11 21 -25z"/>
<path d="M2071 3166 c-14 -17 -5 -62 14 -70 15 -5 10 18 -8 42 -14 18 18 15
33 -3 7 -9 19 -14 26 -11 6 2 20 -2 31 -10 16 -14 16 -14 -7 -3 -23 11 -24 11
-11 -5 8 -9 21 -14 32 -11 9 3 35 -3 56 -15 39 -21 99 -28 88 -10 -3 6 -18 10
-32 10 -14 0 -51 17 -82 37 -31 21 -63 38 -71 38 -54 5 -55 5 -40 15 13 8 13
10 -1 10 -9 0 -22 -6 -28 -14z"/>
<path d="M2950 3170 c-8 -5 -10 -10 -5 -10 6 0 17 5 25 10 8 5 11 10 5 10 -5
0 -17 -5 -25 -10z"/>
<path d="M2350 3100 c0 -5 5 -10 11 -10 5 0 7 5 4 10 -3 6 -8 10 -11 10 -2 0
-4 -4 -4 -10z"/>
<path d="M2123 3064 c-3 -8 -2 -25 1 -38 5 -22 12 -24 78 -28 40 -3 78 -1 83
4 6 6 3 7 -7 3 -20 -8 -23 2 -8 25 15 24 -22 31 -42 8 -9 -11 -22 -17 -27 -13
-6 3 -11 0 -12 -7 0 -7 -4 -2 -10 10 -5 13 -7 27 -4 32 3 4 -7 10 -21 13 -16
3 -28 -1 -31 -9z"/>
<path d="M1395 3030 c10 -11 20 -20 23 -20 3 0 -3 9 -13 20 -10 11 -20 20 -23
20 -3 0 3 -9 13 -20z"/>
<path d="M1886 2927 l-39 -12 48 -38 c46 -36 51 -37 127 -37 43 0 78 4 78 9 0
5 7 11 14 14 10 4 13 1 9 -9 -3 -9 1 -14 14 -14 35 0 128 32 149 51 11 10 26
19 33 19 7 0 11 6 9 13 -6 17 -387 21 -442 4z"/>
<path d="M1810 2895 c0 -7 15 -20 34 -29 47 -22 53 -20 27 8 -27 28 -61 40
-61 21z"/>
</g>
</svg>
